<svg width="822" height="544" viewBox="0 0 822 544" fill="none" xmlns="http://www.w3.org/2000/svg">
<path opacity="0.24" d="M131.972 452.613C91.511 457.283 49.8086 462.419 14.2045 485.264C9.43899 488.328 4.60049 491.942 1.97126 497.458C-3.30545 508.553 2.68334 523.177 11.9769 529.855C21.2705 536.533 32.7369 537.294 43.6737 537.844C238.419 547.586 433.456 543.761 628.366 539.957C684.967 538.858 742.464 537.59 796.71 518.718C806.46 515.337 817.177 510.265 820.847 499.212C825.649 484.757 814.694 468.737 801.913 464.236C789.132 459.735 775.493 463.095 762.274 465.06C716.372 471.886 670.069 461.446 624.367 453.099C534.901 436.784 442.074 423.512 351.457 421.039C320.564 420.215 294.181 432.515 263.944 437.376C220.288 444.434 175.865 447.541 131.972 452.613Z" fill="#505F98"/>
<rect x="332.468" y="342" width="98.0679" height="82" fill="#505F98"/>
<rect x="332.468" y="342" width="98.0679" height="82" fill="url(#paint0_linear)"/>
<rect x="124.324" width="518.359" height="355" rx="9.37" fill="#505F98"/>
<path opacity="0.65" d="M625.671 29.4378V323.562C625.688 328.443 623.764 333.129 620.324 336.588C616.884 340.047 612.21 341.994 607.334 342H155.671C150.796 341.989 146.126 340.04 142.687 336.582C139.248 333.125 137.322 328.441 137.333 323.562V29.4378C137.322 24.5589 139.248 19.8754 142.687 16.4177C146.126 12.9599 150.796 11.0111 155.671 11H607.334C612.21 11.0055 616.884 12.9526 620.324 16.4115C623.764 19.8705 625.688 24.5572 625.671 29.4378V29.4378Z" fill="url(#paint1_linear)"/>
<rect x="287.437" y="414" width="206.143" height="21" fill="#505F98"/>
<rect x="332.468" y="402" width="98.0679" height="12" fill="url(#paint2_linear)"/>
<path d="M625.671 29.5131V36H137.333V29.5131C137.322 24.6143 139.248 19.9117 142.687 16.4398C146.126 12.9679 150.797 11.0112 155.672 11H607.332C612.209 11.0056 616.883 12.9605 620.324 16.4336C623.764 19.9067 625.688 24.6126 625.671 29.5131V29.5131Z" fill="url(#paint3_linear)"/>
<rect x="147.34" y="68" width="47.0326" height="227" fill="url(#paint4_linear)"/>
<rect x="265.422" y="84" width="221.153" height="209" fill="url(#paint5_linear)"/>
<rect x="518.597" y="48" width="100.069" height="100" fill="url(#paint6_linear)"/>
<rect x="518.597" y="158" width="100.069" height="100" fill="url(#paint7_linear)"/>
<rect opacity="0.65" x="147.34" y="67" width="47.0326" height="13" fill="url(#paint8_linear)"/>
<defs>
<linearGradient id="paint0_linear" x1="454.603" y1="410.322" x2="465.024" y2="283.584" gradientUnits="userSpaceOnUse">
<stop stop-color="#010101" stop-opacity="0.01"/>
<stop offset="0.95" stop-color="#010101"/>
</linearGradient>
<linearGradient id="paint1_linear" x1="52.8903" y1="-52.4833" x2="50.175" y2="397.071" gradientUnits="userSpaceOnUse">
<stop stop-color="white" stop-opacity="0.01"/>
<stop offset="0.07" stop-color="white" stop-opacity="0.22"/>
<stop offset="0.16" stop-color="white" stop-opacity="0.45"/>
<stop offset="0.25" stop-color="white" stop-opacity="0.65"/>
<stop offset="0.33" stop-color="white" stop-opacity="0.8"/>
<stop offset="0.4" stop-color="white" stop-opacity="0.91"/>
<stop offset="0.46" stop-color="white" stop-opacity="0.98"/>
<stop offset="0.51" stop-color="white"/>
</linearGradient>
<linearGradient id="paint2_linear" x1="-200.764" y1="385.073" x2="-200.664" y2="527.306" gradientUnits="userSpaceOnUse">
<stop stop-color="#010101" stop-opacity="0.01"/>
<stop offset="0.95" stop-color="#010101"/>
</linearGradient>
<linearGradient id="paint3_linear" x1="951.649" y1="130.966" x2="985.834" y2="-276.145" gradientUnits="userSpaceOnUse">
<stop stop-color="white" stop-opacity="0.01"/>
<stop offset="0.07" stop-color="white" stop-opacity="0.22"/>
<stop offset="0.16" stop-color="white" stop-opacity="0.45"/>
<stop offset="0.25" stop-color="white" stop-opacity="0.65"/>
<stop offset="0.33" stop-color="white" stop-opacity="0.8"/>
<stop offset="0.4" stop-color="white" stop-opacity="0.91"/>
<stop offset="0.46" stop-color="white" stop-opacity="0.98"/>
<stop offset="0.51" stop-color="white"/>
</linearGradient>
<linearGradient id="paint4_linear" x1="124.769" y1="20.8698" x2="262.776" y2="389.142" gradientUnits="userSpaceOnUse">
<stop stop-color="white" stop-opacity="0.01"/>
<stop offset="0.07" stop-color="white" stop-opacity="0.22"/>
<stop offset="0.16" stop-color="white" stop-opacity="0.45"/>
<stop offset="0.25" stop-color="white" stop-opacity="0.65"/>
<stop offset="0.33" stop-color="white" stop-opacity="0.8"/>
<stop offset="0.4" stop-color="white" stop-opacity="0.91"/>
<stop offset="0.46" stop-color="white" stop-opacity="0.98"/>
<stop offset="0.51" stop-color="white"/>
</linearGradient>
<linearGradient id="paint5_linear" x1="228.299" y1="43.9902" x2="224.974" y2="326.698" gradientUnits="userSpaceOnUse">
<stop stop-color="white" stop-opacity="0.01"/>
<stop offset="0.07" stop-color="white" stop-opacity="0.22"/>
<stop offset="0.16" stop-color="white" stop-opacity="0.45"/>
<stop offset="0.25" stop-color="white" stop-opacity="0.65"/>
<stop offset="0.33" stop-color="white" stop-opacity="0.8"/>
<stop offset="0.4" stop-color="white" stop-opacity="0.91"/>
<stop offset="0.46" stop-color="white" stop-opacity="0.98"/>
<stop offset="0.51" stop-color="white"/>
</linearGradient>
<linearGradient id="paint6_linear" x1="501.908" y1="28.8638" x2="500.123" y2="164.026" gradientUnits="userSpaceOnUse">
<stop stop-color="white" stop-opacity="0.01"/>
<stop offset="0.07" stop-color="white" stop-opacity="0.22"/>
<stop offset="0.16" stop-color="white" stop-opacity="0.45"/>
<stop offset="0.25" stop-color="white" stop-opacity="0.65"/>
<stop offset="0.33" stop-color="white" stop-opacity="0.8"/>
<stop offset="0.4" stop-color="white" stop-opacity="0.91"/>
<stop offset="0.46" stop-color="white" stop-opacity="0.98"/>
<stop offset="0.51" stop-color="white"/>
</linearGradient>
<linearGradient id="paint7_linear" x1="501.908" y1="138.864" x2="500.123" y2="274.026" gradientUnits="userSpaceOnUse">
<stop stop-color="white" stop-opacity="0.01"/>
<stop offset="0.07" stop-color="white" stop-opacity="0.22"/>
<stop offset="0.16" stop-color="white" stop-opacity="0.45"/>
<stop offset="0.25" stop-color="white" stop-opacity="0.65"/>
<stop offset="0.33" stop-color="white" stop-opacity="0.8"/>
<stop offset="0.4" stop-color="white" stop-opacity="0.91"/>
<stop offset="0.46" stop-color="white" stop-opacity="0.98"/>
<stop offset="0.51" stop-color="white"/>
</linearGradient>
<linearGradient id="paint8_linear" x1="138.068" y1="64.2811" x2="138.051" y2="82.4813" gradientUnits="userSpaceOnUse">
<stop stop-color="white" stop-opacity="0.01"/>
<stop offset="0.07" stop-color="white" stop-opacity="0.22"/>
<stop offset="0.16" stop-color="white" stop-opacity="0.45"/>
<stop offset="0.25" stop-color="white" stop-opacity="0.65"/>
<stop offset="0.33" stop-color="white" stop-opacity="0.8"/>
<stop offset="0.4" stop-color="white" stop-opacity="0.91"/>
<stop offset="0.46" stop-color="white" stop-opacity="0.98"/>
<stop offset="0.51" stop-color="white"/>
</linearGradient>
</defs>
</svg>
