<svg width="822" height="544" viewBox="0 0 822 544" fill="none" xmlns="http://www.w3.org/2000/svg">
<path opacity="0.24" d="M131.972 452.613C91.511 457.283 49.8086 462.419 14.2045 485.264C9.43899 488.328 4.60049 491.942 1.97126 497.458C-3.30545 508.553 2.68334 523.177 11.9769 529.855C21.2705 536.533 32.7369 537.294 43.6737 537.844C238.419 547.586 433.456 543.761 628.366 539.957C684.967 538.858 742.464 537.59 796.71 518.718C806.46 515.337 817.177 510.265 820.847 499.212C825.649 484.757 814.694 468.737 801.913 464.236C789.132 459.735 775.493 463.095 762.274 465.06C716.372 471.886 670.069 461.446 624.367 453.099C534.901 436.784 442.074 423.512 351.457 421.039C320.564 420.215 294.181 432.515 263.944 437.376C220.288 444.434 175.865 447.541 131.972 452.613Z" fill="#505F98"/>
<rect x="332.468" y="342" width="98.0679" height="82" fill="#505F98"/>
<rect x="332.468" y="342" width="98.0679" height="82" fill="url(#paint0_linear)"/>
<rect x="124.324" width="518.359" height="355" rx="9.37" fill="#505F98"/>
<path opacity="0.65" d="M625.671 29.4378V323.562C625.688 328.443 623.764 333.129 620.324 336.588C616.884 340.047 612.21 341.994 607.334 342H155.671C150.796 341.989 146.126 340.04 142.687 336.582C139.248 333.125 137.322 328.441 137.333 323.562V29.4378C137.322 24.5589 139.248 19.8754 142.687 16.4177C146.126 12.9599 150.796 11.0111 155.671 11H607.334C612.21 11.0055 616.884 12.9526 620.324 16.4115C623.764 19.8705 625.688 24.5572 625.671 29.4378V29.4378Z" fill="url(#paint1_linear)"/>
<rect x="287.437" y="414" width="206.143" height="21" fill="#505F98"/>
<rect x="332.468" y="402" width="98.0679" height="12" fill="url(#paint2_linear)"/>
<path d="M625.671 29.5131V36H137.333V29.5131C137.322 24.6143 139.248 19.9117 142.687 16.4398C146.126 12.9679 150.797 11.0112 155.672 11H607.332C612.209 11.0056 616.883 12.9605 620.324 16.4336C623.764 19.9067 625.688 24.6126 625.671 29.5131V29.5131Z" fill="url(#paint3_linear)"/>
<rect x="147.34" y="68" width="47.0326" height="227" fill="url(#paint4_linear)"/>
<rect x="265.422" y="84" width="221.153" height="209" fill="url(#paint5_linear)"/>
<rect x="316.457" y="182" width="7.00485" height="9" fill="url(#paint6_linear)"/>
<rect x="316.457" y="140" width="7.00485" height="9" fill="url(#paint7_linear)"/>
<rect x="221.391" y="182" width="7.00485" height="9" fill="url(#paint8_linear)"/>
<rect x="221.391" y="140" width="7.00485" height="9" fill="url(#paint9_linear)"/>
<rect x="316.457" y="95" width="7.00485" height="9" fill="url(#paint10_linear)"/>
<rect x="222.392" y="95" width="7.00485" height="9" fill="url(#paint11_linear)"/>
<rect x="270.425" y="95" width="7.00485" height="9" fill="url(#paint12_linear)"/>
<rect x="270.425" y="182" width="7.00485" height="9" fill="url(#paint13_linear)"/>
<path fill-rule="evenodd" clip-rule="evenodd" d="M234.401 180H312.455V107H234.401V180ZM304.593 172.282H242.263V114.656H304.593V172.282Z" fill="#505F98"/>
<path fill-rule="evenodd" clip-rule="evenodd" d="M234.401 180H312.455V107H234.401V180ZM304.593 172.282H242.263V114.656H304.593V172.282Z" fill="url(#paint14_linear)"/>
<rect x="518.597" y="48" width="100.069" height="100" fill="url(#paint15_linear)"/>
<rect x="518.597" y="158" width="100.069" height="100" fill="url(#paint16_linear)"/>
<rect opacity="0.65" x="147.34" y="67" width="47.0326" height="13" fill="url(#paint17_linear)"/>
<path d="M258.059 228C257.386 224.436 256.96 219.39 258.254 219.043C260.982 218.275 258.059 228 258.059 228Z" fill="#28353D"/>
<path d="M401.318 423.507C400.832 436.102 391.07 482.388 390.753 495.004C390.753 499.202 391.873 505.647 390.52 509.698C387.731 518.284 377.842 517.108 376.553 512.049L376.067 509.53C371.482 485.012 378.856 457.198 376.067 425.186C374.398 405.643 366.621 367.963 361.529 367.711C358.845 367.711 297.588 496.851 292.263 504.807C289.643 508.817 282.268 508.187 278.697 511.42C275.126 514.652 308.449 413.515 322.416 360.07C325.674 349.039 327.798 337.709 328.755 326.252C329.136 319.64 327.002 317.415 333.108 315.463C337.334 314.119 343.188 314.497 347.71 314.182C352.633 313.804 398.423 313.72 398.423 316.953C397.979 334.502 402.501 394.412 401.318 423.507Z" fill="#606161"/>
<path d="M401.318 423.507C400.832 436.102 391.07 482.388 390.753 495.004C390.753 499.202 391.873 505.647 390.52 509.698C387.731 518.284 377.842 517.108 376.553 512.049L376.067 509.53C371.482 485.012 378.856 457.198 376.067 425.186C374.398 405.643 366.621 367.963 361.529 367.711C358.845 367.711 297.588 496.851 292.263 504.807C289.643 508.817 282.268 508.187 278.697 511.42C275.126 514.652 308.449 413.515 322.416 360.07C325.674 349.039 327.798 337.709 328.755 326.252C329.136 319.64 327.002 317.415 333.108 315.463C337.334 314.119 343.188 314.497 347.71 314.182C352.633 313.804 398.423 313.72 398.423 316.953C397.979 334.502 402.501 394.412 401.318 423.507Z" fill="url(#paint18_linear)"/>
<path d="M347.245 155.148C346.86 151.163 344.977 149 343.137 149C341.298 149 340.164 151.12 340.549 155.148C340.636 158.122 342.88 160.597 345.854 161C347.716 161 347.651 159.134 347.245 155.148Z" fill="#FFCD9C"/>
<path d="M379.639 155.159C379.889 151.166 381.726 149 383.625 149C385.524 149 386.755 151.124 386.463 155.159C386.437 158.173 384.191 160.687 381.246 161C379.368 161 379.347 159.152 379.639 155.159Z" fill="#FFCD9C"/>
<path d="M383.363 172.672C383.104 174.777 374.189 184 364.044 184C353.899 184 345.523 175.577 343.753 172.208C341.983 168.839 349.107 125.505 353.23 121.884C357.352 118.262 374.06 120.641 375.463 122.558C378.83 127.085 384.464 164.27 383.363 172.672Z" fill="#F4AD7D"/>
<path d="M379.169 139.977C377.79 140.639 372.375 126.842 371.239 124.525C370.103 122.208 370.285 119.829 371.665 119.167C373.044 118.505 375.072 119.871 376.208 122.167C377.344 124.463 380.528 139.336 379.169 139.977Z" fill="#FFCD9C"/>
<path d="M348.799 138.987C347.369 138.501 351.156 124.179 351.982 121.703C352.808 119.228 354.662 117.599 356.012 118.086C357.362 118.573 357.926 120.984 357.1 123.481C356.274 125.977 350.149 139.474 348.799 138.987Z" fill="#FFCD9C"/>
<path d="M354.476 171H376.24L379.501 191.622C367.645 198.005 360.732 197.301 351.482 190.214L354.476 171Z" fill="#F4AD7D"/>
<path d="M363.49 175.13C363.49 174.75 364.395 174.43 365.491 174.43C366.587 174.43 367.493 174.75 367.493 175.13C367.493 175.51 366.611 175.57 365.491 175.57C364.371 175.57 363.49 175.53 363.49 175.13Z" fill="#F4AD7D"/>
<path d="M384.523 165.808C385.347 160.894 386.691 125.708 383.396 121.051C380.1 116.394 360.372 113.381 357.38 114.108C350.681 115.731 351.852 120.517 351.852 120.517C349.861 120.547 347.912 121.084 346.194 122.076C343.896 123.615 339.061 145.79 342.92 162.56C344.655 170.102 351.484 176.66 363.277 176.981C377.802 177.365 383.526 171.896 384.523 165.808Z" fill="#606161"/>
<path d="M357.462 115.762C359.021 114.448 361.041 113.828 363.061 114.041C369.194 114.008 375.278 115.14 380.996 117.376C384.166 118.488 387.045 120.311 389.416 122.708C391.803 125.173 392.902 128.627 392.384 132.034C391.331 137.047 386.069 140.148 384.343 144.97C382.954 148.837 383.943 152.575 383.985 156.463C384.013 159.606 383.788 162.746 383.311 165.852C382.343 171.906 376.807 177.344 362.598 176.983C351.147 176.664 344.516 170.143 342.832 162.644C340.552 150.198 341.15 137.389 344.579 125.215C350.751 126.648 357.065 127.361 363.398 127.339C370.113 127.395 376.809 126.611 383.332 125.002C384.448 131.503 384.427 144.524 384.069 154.253" fill="#606161"/>
<path d="M321.513 191.954C318.079 192.241 314.771 193.384 311.888 195.28C306.951 199.171 306.576 206.43 306.659 212.748C306.49 221.501 307.096 230.252 308.471 238.897C309.951 246.826 312.638 254.441 314.847 262.202C318.328 274.831 320.155 287.862 320.284 300.966C320.284 308.162 320.159 316.07 324.639 321.697C329.535 327.806 338.201 328.998 345.993 329.438C357.056 330.086 368.16 330.17 379.223 329.709C386.64 329.375 394.536 328.643 400.411 324.082C405.099 320.442 416.078 197.288 407.557 194.171C399.036 191.054 389.869 190.259 380.827 189.506C360.556 187.791 341.472 186.431 321.513 191.954Z" fill="#505F98"/>
<path d="M386.153 443.291C385.066 457.255 382.474 508 382.474 508L375.869 507.77C371.333 483.39 378.628 455.732 375.869 423.899C374.218 404.465 366.526 366.996 361.489 366.746C362.993 354.221 371.459 356.1 371.459 356.1C377.615 365.294 382.925 375.026 387.323 385.178C392.361 398.37 387.261 429.263 386.153 443.291Z" fill="url(#paint19_linear)"/>
<path d="M261.796 509.024C260.764 509.786 259.981 510.83 259.544 512.025C259.309 513.009 259.404 514.04 259.815 514.965C260.981 517.326 263.191 519.019 265.799 519.55C268.376 520.04 271.014 520.131 273.618 519.818L281.959 519.262C284.081 519.212 286.186 518.873 288.215 518.255C290.245 517.627 291.921 516.198 292.844 514.308C293.335 512.916 293.527 511.438 293.407 509.969C293.407 503.164 290.988 497.634 283.44 499.299C275.533 500.765 268.105 504.102 261.796 509.024V509.024Z" fill="#505F98"/>
<path d="M400.334 512.063C401.281 512.759 402 513.709 402.401 514.797C402.615 515.682 402.531 516.611 402.162 517.446C401.099 519.584 399.069 521.114 396.678 521.579C394.321 522.035 391.904 522.121 389.519 521.834L381.947 521.325C380.021 521.284 378.11 520.985 376.268 520.435C374.411 519.864 372.881 518.566 372.046 516.853C371.598 515.595 371.421 514.26 371.524 512.932C371.524 506.785 373.7 501.72 380.641 503.288C387.837 504.619 394.595 507.63 400.334 512.063V512.063Z" fill="#505F98"/>
<path d="M409.522 190C409.522 190 442.237 209.163 452.063 233.389C461.888 257.614 419.883 316 419.883 316L410.895 306.814C410.895 306.814 432.82 262.759 429.43 251.74C426.04 240.721 412.761 230.452 412.761 230.452L409.522 190Z" fill="#505F98"/>
<path d="M316.457 227.859C316.457 227.859 270.969 248.24 252.484 238.238C233.999 228.237 253.029 178 253.029 178L265.409 182.202C265.409 182.202 255.065 207.815 266.898 211.618C278.732 215.421 314.191 190.438 314.191 190.438L316.457 227.859Z" fill="#505F98"/>
<path d="M402.098 314.976C400.789 315.826 399.729 316.968 399.013 318.297C398.583 319.425 398.428 320.629 398.56 321.819C398.48 324.709 399.795 327.479 402.141 329.367C403.789 330.25 405.636 330.76 407.534 330.857C408.697 331.048 409.887 331.048 411.05 330.857C412.237 330.646 413.228 329.888 413.682 328.844C413.837 328.183 413.903 327.507 413.877 326.831C414.028 323.51 416.53 320.793 418.601 318.076C419.101 317.551 419.424 316.9 419.529 316.204C419.517 315.434 419.228 314.69 418.709 314.091C417.307 312.199 413.833 308.717 411.05 309.018C408.268 309.32 404.255 313.326 402.098 314.976Z" fill="#F4AD7D"/>
<path d="M273.216 170.435C273.809 169.611 274.213 168.679 274.403 167.698C274.554 166.683 274.017 165.687 273.063 165.211C271.547 164.647 269.745 166.13 268.251 165.504C267.745 165.235 267.322 164.846 267.021 164.375C265.256 161.945 264.244 159.093 264.098 156.143C264.184 154.571 264.036 152.995 263.659 151.463C263.215 149.886 261.631 148.849 259.924 149.018C258.518 149.331 257.727 150.689 256.848 151.776C255.969 152.863 254.211 154.158 253.069 155.516C251.118 158.307 250.002 161.55 249.839 164.898C249.224 169.077 248.828 173.861 251.904 176.87C254.277 179.189 261.506 181.927 264.823 180.694C268.493 179.315 271.371 173.444 273.216 170.435Z" fill="#F4AD7D"/>
<defs>
<linearGradient id="paint0_linear" x1="454.603" y1="410.322" x2="465.024" y2="283.584" gradientUnits="userSpaceOnUse">
<stop stop-color="#010101" stop-opacity="0.01"/>
<stop offset="0.95" stop-color="#010101"/>
</linearGradient>
<linearGradient id="paint1_linear" x1="52.8903" y1="-52.4833" x2="50.175" y2="397.071" gradientUnits="userSpaceOnUse">
<stop stop-color="white" stop-opacity="0.01"/>
<stop offset="0.07" stop-color="white" stop-opacity="0.22"/>
<stop offset="0.16" stop-color="white" stop-opacity="0.45"/>
<stop offset="0.25" stop-color="white" stop-opacity="0.65"/>
<stop offset="0.33" stop-color="white" stop-opacity="0.8"/>
<stop offset="0.4" stop-color="white" stop-opacity="0.91"/>
<stop offset="0.46" stop-color="white" stop-opacity="0.98"/>
<stop offset="0.51" stop-color="white"/>
</linearGradient>
<linearGradient id="paint2_linear" x1="-200.764" y1="385.073" x2="-200.664" y2="527.306" gradientUnits="userSpaceOnUse">
<stop stop-color="#010101" stop-opacity="0.01"/>
<stop offset="0.95" stop-color="#010101"/>
</linearGradient>
<linearGradient id="paint3_linear" x1="951.649" y1="130.966" x2="985.834" y2="-276.145" gradientUnits="userSpaceOnUse">
<stop stop-color="white" stop-opacity="0.01"/>
<stop offset="0.07" stop-color="white" stop-opacity="0.22"/>
<stop offset="0.16" stop-color="white" stop-opacity="0.45"/>
<stop offset="0.25" stop-color="white" stop-opacity="0.65"/>
<stop offset="0.33" stop-color="white" stop-opacity="0.8"/>
<stop offset="0.4" stop-color="white" stop-opacity="0.91"/>
<stop offset="0.46" stop-color="white" stop-opacity="0.98"/>
<stop offset="0.51" stop-color="white"/>
</linearGradient>
<linearGradient id="paint4_linear" x1="124.769" y1="20.8698" x2="262.776" y2="389.142" gradientUnits="userSpaceOnUse">
<stop stop-color="white" stop-opacity="0.01"/>
<stop offset="0.07" stop-color="white" stop-opacity="0.22"/>
<stop offset="0.16" stop-color="white" stop-opacity="0.45"/>
<stop offset="0.25" stop-color="white" stop-opacity="0.65"/>
<stop offset="0.33" stop-color="white" stop-opacity="0.8"/>
<stop offset="0.4" stop-color="white" stop-opacity="0.91"/>
<stop offset="0.46" stop-color="white" stop-opacity="0.98"/>
<stop offset="0.51" stop-color="white"/>
</linearGradient>
<linearGradient id="paint5_linear" x1="228.299" y1="43.9902" x2="224.974" y2="326.698" gradientUnits="userSpaceOnUse">
<stop stop-color="white" stop-opacity="0.01"/>
<stop offset="0.07" stop-color="white" stop-opacity="0.22"/>
<stop offset="0.16" stop-color="white" stop-opacity="0.45"/>
<stop offset="0.25" stop-color="white" stop-opacity="0.65"/>
<stop offset="0.33" stop-color="white" stop-opacity="0.8"/>
<stop offset="0.4" stop-color="white" stop-opacity="0.91"/>
<stop offset="0.46" stop-color="white" stop-opacity="0.98"/>
<stop offset="0.51" stop-color="white"/>
</linearGradient>
<linearGradient id="paint6_linear" x1="544.134" y1="235.704" x2="563.321" y2="-342.215" gradientUnits="userSpaceOnUse">
<stop stop-color="#010101" stop-opacity="0.01"/>
<stop offset="0.95" stop-color="#010101"/>
</linearGradient>
<linearGradient id="paint7_linear" x1="543.282" y1="236.045" x2="562.47" y2="-341.875" gradientUnits="userSpaceOnUse">
<stop stop-color="#010101" stop-opacity="0.01"/>
<stop offset="0.95" stop-color="#010101"/>
</linearGradient>
<linearGradient id="paint8_linear" x1="449.103" y1="233.354" x2="468.319" y2="-344.565" gradientUnits="userSpaceOnUse">
<stop stop-color="#010101" stop-opacity="0.01"/>
<stop offset="0.95" stop-color="#010101"/>
</linearGradient>
<linearGradient id="paint9_linear" x1="448.251" y1="233.694" x2="467.467" y2="-344.224" gradientUnits="userSpaceOnUse">
<stop stop-color="#010101" stop-opacity="0.01"/>
<stop offset="0.95" stop-color="#010101"/>
</linearGradient>
<linearGradient id="paint10_linear" x1="542.344" y1="237.545" x2="561.56" y2="-340.373" gradientUnits="userSpaceOnUse">
<stop stop-color="#010101" stop-opacity="0.01"/>
<stop offset="0.95" stop-color="#010101"/>
</linearGradient>
<linearGradient id="paint11_linear" x1="448.313" y1="235.236" x2="467.501" y2="-342.683" gradientUnits="userSpaceOnUse">
<stop stop-color="#010101" stop-opacity="0.01"/>
<stop offset="0.95" stop-color="#010101"/>
</linearGradient>
<linearGradient id="paint12_linear" x1="496.303" y1="236.396" x2="515.52" y2="-341.501" gradientUnits="userSpaceOnUse">
<stop stop-color="#010101" stop-opacity="0.01"/>
<stop offset="0.95" stop-color="#010101"/>
</linearGradient>
<linearGradient id="paint13_linear" x1="498.119" y1="233.843" x2="517.336" y2="-344.075" gradientUnits="userSpaceOnUse">
<stop stop-color="#010101" stop-opacity="0.01"/>
<stop offset="0.95" stop-color="#010101"/>
</linearGradient>
<linearGradient id="paint14_linear" x1="153.042" y1="248.399" x2="385.274" y2="465.094" gradientUnits="userSpaceOnUse">
<stop stop-color="white" stop-opacity="0.01"/>
<stop offset="0.07" stop-color="white" stop-opacity="0.22"/>
<stop offset="0.16" stop-color="white" stop-opacity="0.45"/>
<stop offset="0.25" stop-color="white" stop-opacity="0.65"/>
<stop offset="0.33" stop-color="white" stop-opacity="0.8"/>
<stop offset="0.4" stop-color="white" stop-opacity="0.91"/>
<stop offset="0.46" stop-color="white" stop-opacity="0.98"/>
<stop offset="0.51" stop-color="white"/>
</linearGradient>
<linearGradient id="paint15_linear" x1="501.908" y1="28.8638" x2="500.123" y2="164.026" gradientUnits="userSpaceOnUse">
<stop stop-color="white" stop-opacity="0.01"/>
<stop offset="0.07" stop-color="white" stop-opacity="0.22"/>
<stop offset="0.16" stop-color="white" stop-opacity="0.45"/>
<stop offset="0.25" stop-color="white" stop-opacity="0.65"/>
<stop offset="0.33" stop-color="white" stop-opacity="0.8"/>
<stop offset="0.4" stop-color="white" stop-opacity="0.91"/>
<stop offset="0.46" stop-color="white" stop-opacity="0.98"/>
<stop offset="0.51" stop-color="white"/>
</linearGradient>
<linearGradient id="paint16_linear" x1="501.908" y1="138.864" x2="500.123" y2="274.026" gradientUnits="userSpaceOnUse">
<stop stop-color="white" stop-opacity="0.01"/>
<stop offset="0.07" stop-color="white" stop-opacity="0.22"/>
<stop offset="0.16" stop-color="white" stop-opacity="0.45"/>
<stop offset="0.25" stop-color="white" stop-opacity="0.65"/>
<stop offset="0.33" stop-color="white" stop-opacity="0.8"/>
<stop offset="0.4" stop-color="white" stop-opacity="0.91"/>
<stop offset="0.46" stop-color="white" stop-opacity="0.98"/>
<stop offset="0.51" stop-color="white"/>
</linearGradient>
<linearGradient id="paint17_linear" x1="138.068" y1="64.2811" x2="138.051" y2="82.4813" gradientUnits="userSpaceOnUse">
<stop stop-color="white" stop-opacity="0.01"/>
<stop offset="0.07" stop-color="white" stop-opacity="0.22"/>
<stop offset="0.16" stop-color="white" stop-opacity="0.45"/>
<stop offset="0.25" stop-color="white" stop-opacity="0.65"/>
<stop offset="0.33" stop-color="white" stop-opacity="0.8"/>
<stop offset="0.4" stop-color="white" stop-opacity="0.91"/>
<stop offset="0.46" stop-color="white" stop-opacity="0.98"/>
<stop offset="0.51" stop-color="white"/>
</linearGradient>
<linearGradient id="paint18_linear" x1="402.646" y1="400.512" x2="306.553" y2="235.732" gradientUnits="userSpaceOnUse">
<stop stop-color="#010101" stop-opacity="0.01"/>
<stop offset="0.95" stop-color="#010101"/>
</linearGradient>
<linearGradient id="paint19_linear" x1="403.669" y1="-61.1083" x2="230.783" y2="-56.2386" gradientUnits="userSpaceOnUse">
<stop stop-color="#010101" stop-opacity="0.01"/>
<stop offset="0.95" stop-color="#010101"/>
</linearGradient>
</defs>
</svg>
