<svg width="235" height="426" viewBox="0 0 235 426" fill="none" xmlns="http://www.w3.org/2000/svg">
<rect x="94" y="90" width="7.00485" height="9" fill="url(#paint0_linear)"/>
<rect x="94" y="45" width="7.00485" height="9" fill="url(#paint1_linear)"/>
<rect y="90" width="7.00485" height="9" fill="url(#paint2_linear)"/>
<rect y="45" width="7.00485" height="9" fill="url(#paint3_linear)"/>
<rect x="94" width="7.00485" height="9" fill="url(#paint4_linear)"/>
<rect width="7.00485" height="9" fill="url(#paint5_linear)"/>
<rect x="48" width="7.00485" height="9" fill="url(#paint6_linear)"/>
<path fill-rule="evenodd" clip-rule="evenodd" d="M12.4004 85H90.4544V12H12.4004V85ZM82.5924 77.2822H20.2624V19.656H82.5924V77.2822Z" fill="#505F98"/>
<path d="M38.6513 132C37.9781 128.436 37.5529 123.39 38.8462 123.043C41.5744 122.275 38.6513 132 38.6513 132Z" fill="#28353D"/>
<path d="M181.911 327.507C181.425 340.102 171.662 386.388 171.345 399.004C171.345 403.202 172.465 409.647 171.113 413.698C168.324 422.284 158.434 421.108 157.145 416.049L156.659 413.53C152.074 389.012 159.449 361.198 156.659 329.186C154.99 309.643 147.214 271.963 142.122 271.711C139.438 271.711 78.1802 400.851 72.8553 408.807C70.2351 412.817 62.8605 412.187 59.2894 415.42C55.7184 418.652 89.0414 317.515 103.009 264.07C106.266 253.039 108.39 241.709 109.348 230.252C109.728 223.64 107.594 221.415 113.701 219.463C117.927 218.119 123.78 218.497 128.302 218.182C133.226 217.804 179.016 217.72 179.016 220.953C178.572 238.502 183.094 298.412 181.911 327.507Z" fill="#606161"/>
<path d="M181.911 327.507C181.425 340.102 171.662 386.388 171.345 399.004C171.345 403.202 172.465 409.647 171.113 413.698C168.324 422.284 158.434 421.108 157.145 416.049L156.659 413.53C152.074 389.012 159.449 361.198 156.659 329.186C154.99 309.643 147.214 271.963 142.122 271.711C139.438 271.711 78.1802 400.851 72.8553 408.807C70.2351 412.817 62.8605 412.187 59.2894 415.42C55.7184 418.652 89.0414 317.515 103.009 264.07C106.266 253.039 108.39 241.709 109.348 230.252C109.728 223.64 107.594 221.415 113.701 219.463C117.927 218.119 123.78 218.497 128.302 218.182C133.226 217.804 179.016 217.72 179.016 220.953C178.572 238.502 183.094 298.412 181.911 327.507Z" fill="url(#paint7_linear)"/>
<path d="M127.838 59.1484C127.452 55.1625 125.57 53 123.73 53C121.89 53 120.756 55.1201 121.141 59.1484C121.229 62.122 123.473 64.597 126.447 65C128.308 65 128.244 63.1343 127.838 59.1484Z" fill="#FFCD9C"/>
<path d="M160.231 59.1593C160.482 55.1664 162.318 53 164.217 53C166.116 53 167.348 55.1239 167.056 59.1593C167.029 62.1733 164.784 64.6868 161.838 65C159.96 65 159.939 63.1522 160.231 59.1593Z" fill="#FFCD9C"/>
<path d="M163.956 76.6717C163.697 78.7773 154.782 88 144.637 88C134.491 88 126.116 79.5775 124.346 76.2084C122.576 72.8394 129.699 29.5055 133.822 25.8838C137.945 22.2621 154.652 24.6415 156.056 26.5576C159.423 31.0847 165.057 68.2702 163.956 76.6717Z" fill="#F4AD7D"/>
<path d="M159.762 43.977C158.383 44.6389 152.967 30.8416 151.831 28.5248C150.696 26.208 150.878 23.8292 152.257 23.1672C153.637 22.5053 155.665 23.8705 156.801 26.1666C157.937 28.4627 161.121 43.3357 159.762 43.977Z" fill="#FFCD9C"/>
<path d="M129.392 42.9872C127.961 42.5006 131.749 28.1786 132.575 25.7035C133.401 23.2283 135.255 21.5994 136.605 22.086C137.954 22.5725 138.519 24.9842 137.693 27.4805C136.866 29.9768 130.741 43.4737 129.392 42.9872Z" fill="#FFCD9C"/>
<path d="M135.069 75H156.832L160.094 95.6222C148.238 102.005 141.325 101.301 132.074 94.2137L135.069 75Z" fill="#F4AD7D"/>
<path d="M144.083 79.13C144.083 78.75 144.988 78.43 146.084 78.43C147.18 78.43 148.085 78.75 148.085 79.13C148.085 79.51 147.204 79.57 146.084 79.57C144.964 79.57 144.083 79.53 144.083 79.13Z" fill="#F4AD7D"/>
<path d="M165.116 69.8077C165.939 64.8941 167.284 29.7083 163.988 25.051C160.693 20.3937 140.965 17.3815 137.973 18.1078C131.274 19.7315 132.445 24.5169 132.445 24.5169C130.454 24.5467 128.504 25.084 126.786 26.0765C124.488 27.6146 119.654 49.79 123.513 66.5604C125.247 74.1018 132.076 80.6604 143.87 80.9809C158.395 81.3654 164.118 75.8963 165.116 69.8077Z" fill="#606161"/>
<path d="M138.054 19.762C139.614 18.4484 141.634 17.8277 143.654 18.0413C149.786 18.0083 155.87 19.1397 161.588 21.3764C164.759 22.4875 167.638 24.3106 170.008 26.7083C172.396 29.173 173.495 32.6273 172.976 36.0338C171.924 41.047 166.661 44.1484 164.935 48.9705C163.546 52.8366 164.535 56.5753 164.578 60.4627C164.605 63.6057 164.38 66.7457 163.904 69.8519C162.936 75.906 157.399 81.3441 143.191 80.983C131.739 80.6643 125.109 74.1429 123.425 66.6443C121.145 54.1984 121.743 41.3894 125.172 29.2149C131.343 30.6485 137.658 31.3612 143.991 31.3392C150.706 31.3954 157.402 30.6105 163.925 29.0025C165.041 35.5027 165.02 48.5244 164.662 58.2535" fill="#606161"/>
<path d="M102.106 95.9538C98.6718 96.2412 95.3635 97.3844 92.4806 99.28C87.543 103.171 87.168 110.43 87.2513 116.748C87.0821 125.501 87.6887 134.252 89.0639 142.897C90.5431 150.826 93.2306 158.441 95.439 166.202C98.92 178.831 100.748 191.862 100.877 204.966C100.877 212.162 100.752 220.07 105.231 225.697C110.127 231.806 118.794 232.998 126.586 233.438C137.648 234.086 148.753 234.17 159.816 233.709C167.233 233.375 175.129 232.643 181.004 228.082C185.691 224.442 196.671 101.288 188.15 98.1713C179.629 95.0543 170.462 94.2593 161.42 93.5062C141.149 91.7908 122.065 90.431 102.106 95.9538Z" fill="#505F98"/>
<path d="M166.745 347.291C165.658 361.255 163.067 412 163.067 412L156.462 411.77C151.926 387.39 159.221 359.732 156.462 327.899C154.81 308.465 147.118 270.996 142.081 270.746C143.586 258.221 152.051 260.1 152.051 260.1C158.208 269.294 163.518 279.026 167.916 289.178C172.953 302.37 167.853 333.263 166.745 347.291Z" fill="url(#paint8_linear)"/>
<path d="M42.3881 413.024C41.3566 413.786 40.5738 414.83 40.1361 416.025C39.9015 417.009 39.9966 418.04 40.4072 418.965C41.5736 421.326 43.784 423.019 46.3916 423.55C48.968 424.04 51.6063 424.131 54.211 423.818L62.5516 423.262C64.6739 423.212 66.7789 422.873 68.8071 422.255C70.8373 421.627 72.5131 420.198 73.4361 418.308C73.9273 416.916 74.1191 415.438 73.9991 413.969C73.9991 407.164 71.5803 401.634 64.0321 403.299C56.1253 404.765 48.6979 408.102 42.3881 413.024V413.024Z" fill="#505F98"/>
<path d="M180.926 416.063C181.874 416.759 182.592 417.709 182.993 418.797C183.208 419.682 183.124 420.611 182.754 421.446C181.691 423.584 179.662 425.114 177.271 425.579C174.914 426.035 172.497 426.121 170.112 425.834L162.539 425.325C160.613 425.284 158.702 424.985 156.86 424.435C155.003 423.864 153.474 422.566 152.639 420.853C152.191 419.595 152.013 418.26 152.116 416.932C152.116 410.785 154.292 405.72 161.234 407.288C168.43 408.619 175.187 411.63 180.926 416.063V416.063Z" fill="#505F98"/>
<path d="M190.114 94C190.114 94 222.83 113.163 232.655 137.389C242.481 161.614 200.476 220 200.476 220L191.487 210.814C191.487 210.814 213.412 166.759 210.023 155.74C206.633 144.721 193.354 134.452 193.354 134.452L190.114 94Z" fill="#505F98"/>
<path d="M97.0499 131.859C97.0499 131.859 51.5614 152.24 33.0764 142.238C14.5915 132.237 33.622 82 33.622 82L46.0012 86.2022C46.0012 86.2022 35.6572 111.815 47.4909 115.618C59.3247 119.421 94.7839 94.4385 94.7839 94.4385L97.0499 131.859Z" fill="#505F98"/>
<path d="M182.69 218.976C181.382 219.826 180.321 220.968 179.605 222.297C179.175 223.425 179.021 224.629 179.152 225.819C179.073 228.709 180.387 231.479 182.733 233.367C184.382 234.25 186.229 234.76 188.127 234.857C189.29 235.048 190.48 235.048 191.643 234.857C192.83 234.646 193.82 233.888 194.275 232.844C194.43 232.183 194.495 231.507 194.469 230.831C194.62 227.51 197.123 224.793 199.194 222.076C199.694 221.551 200.017 220.9 200.121 220.204C200.109 219.434 199.821 218.69 199.301 218.091C197.899 216.199 194.426 212.717 191.643 213.018C188.86 213.32 184.847 217.326 182.69 218.976Z" fill="#F4AD7D"/>
<path d="M53.809 74.4347C54.4017 73.6114 54.8059 72.6789 54.9955 71.6976C55.1466 70.6826 54.6099 69.687 53.6552 69.2111C52.1392 68.647 50.3375 70.1305 48.8435 69.5036C48.338 69.2346 47.9141 68.846 47.6131 68.3753C45.8489 65.9449 44.8366 63.0929 44.6909 60.1429C44.7769 58.5709 44.6289 56.9952 44.2514 55.4626C43.8071 53.8856 42.2238 52.8494 40.5163 53.0179C39.1101 53.3313 38.3191 54.6895 37.4403 55.776C36.5614 56.8625 34.8037 58.158 33.6612 59.5161C31.7105 62.3072 30.5941 65.5499 30.4314 68.8977C29.8162 73.0766 29.4207 77.8614 32.4967 80.8702C34.8696 83.1895 42.0982 85.9267 45.4159 84.6939C49.0852 83.3149 51.9634 77.4435 53.809 74.4347Z" fill="#F4AD7D"/>
<defs>
<linearGradient id="paint0_linear" x1="321.677" y1="143.704" x2="340.864" y2="-434.215" gradientUnits="userSpaceOnUse">
<stop stop-color="#010101" stop-opacity="0.01"/>
<stop offset="0.95" stop-color="#010101"/>
</linearGradient>
<linearGradient id="paint1_linear" x1="320.825" y1="141.045" x2="340.012" y2="-436.875" gradientUnits="userSpaceOnUse">
<stop stop-color="#010101" stop-opacity="0.01"/>
<stop offset="0.95" stop-color="#010101"/>
</linearGradient>
<linearGradient id="paint2_linear" x1="227.711" y1="141.354" x2="246.928" y2="-436.565" gradientUnits="userSpaceOnUse">
<stop stop-color="#010101" stop-opacity="0.01"/>
<stop offset="0.95" stop-color="#010101"/>
</linearGradient>
<linearGradient id="paint3_linear" x1="226.86" y1="138.694" x2="246.076" y2="-439.224" gradientUnits="userSpaceOnUse">
<stop stop-color="#010101" stop-opacity="0.01"/>
<stop offset="0.95" stop-color="#010101"/>
</linearGradient>
<linearGradient id="paint4_linear" x1="319.886" y1="142.545" x2="339.102" y2="-435.373" gradientUnits="userSpaceOnUse">
<stop stop-color="#010101" stop-opacity="0.01"/>
<stop offset="0.95" stop-color="#010101"/>
</linearGradient>
<linearGradient id="paint5_linear" x1="225.921" y1="140.236" x2="245.109" y2="-437.683" gradientUnits="userSpaceOnUse">
<stop stop-color="#010101" stop-opacity="0.01"/>
<stop offset="0.95" stop-color="#010101"/>
</linearGradient>
<linearGradient id="paint6_linear" x1="273.878" y1="141.396" x2="293.094" y2="-436.501" gradientUnits="userSpaceOnUse">
<stop stop-color="#010101" stop-opacity="0.01"/>
<stop offset="0.95" stop-color="#010101"/>
</linearGradient>
<linearGradient id="paint7_linear" x1="183.239" y1="304.512" x2="87.1454" y2="139.732" gradientUnits="userSpaceOnUse">
<stop stop-color="#010101" stop-opacity="0.01"/>
<stop offset="0.95" stop-color="#010101"/>
</linearGradient>
<linearGradient id="paint8_linear" x1="184.261" y1="-157.108" x2="11.3753" y2="-152.239" gradientUnits="userSpaceOnUse">
<stop stop-color="#010101" stop-opacity="0.01"/>
<stop offset="0.95" stop-color="#010101"/>
</linearGradient>
</defs>
</svg>
