<svg class="gears svg-absolute" width="231" height="144" viewBox="0 0 231 144" fill="none" xmlns="http://www.w3.org/2000/svg">
    <path id="gear-lg" fill-rule="evenodd" clip-rule="evenodd" d="M145.024 59.7038V80.1772L132.315 80.282C131.078 89.8083 127.455 98.8731 121.776 106.644L132.631 117.813L117.751 132.063L107.065 121.04C100.476 125.525 93.0407 128.633 85.2086 130.177V143.463H64.638V130.491C55.8535 129.222 47.4808 125.96 40.1682 120.957L31.2318 129.779L16.6679 115.11L25.5411 106.455C19.9547 98.682 16.3921 89.6537 15.1715 80.1772H0.923828V59.7038H15.6774C17.5064 51.556 21.1029 43.9036 26.2156 37.2814L17.9747 28.7945L32.8547 14.5448L41.2853 23.2832C48.2556 18.677 56.1796 15.6903 64.4694 14.5448V0.462708H85.04V14.8591C93.4087 16.5172 101.318 19.9557 108.224 24.9387L118.762 14.6286L133.242 29.1717L122.704 39.6494C126.835 45.7298 129.768 52.5352 131.345 59.7038H145.024ZM38.8826 72.6123C38.8593 91.6737 54.3819 107.145 73.5533 107.168C82.7649 107.196 91.6085 103.576 98.13 97.1072C104.651 90.6389 108.314 81.8549 108.308 72.6962C108.332 53.6348 92.8091 38.1638 73.6376 38.1407C54.4662 38.1175 38.9059 53.551 38.8826 72.6123Z" fill="#505F98"/>
    <path id="gear-sm" fill-rule="evenodd" clip-rule="evenodd" d="M230.083 91.614L229.164 103.656L221.652 103.197C220.525 108.735 218.021 113.901 214.369 118.218L220.233 125.281L210.884 132.989L205.124 126.052C201.07 128.389 196.584 129.885 191.935 130.447L191.33 138.26L179.289 137.364L179.874 129.739C174.788 128.604 170.033 126.316 165.975 123.052L160.341 127.843L152.474 118.656L158.045 113.947C155.117 109.136 153.432 103.674 153.141 98.0515L145.024 97.4265L145.921 85.4057L154.54 86.0515C155.963 81.3453 158.391 77.0027 161.656 73.3224L157.211 67.9682L166.56 60.2599L171.088 65.7599C175.36 63.3549 180.115 61.9314 185.007 61.5932L185.633 53.2599L197.674 54.1557L197.027 62.6349C201.834 63.9737 206.292 66.341 210.091 69.5724L216.706 63.9682L224.553 73.1557L217.875 78.8432C220.041 82.5986 221.458 86.7373 222.048 91.0307L230.083 91.614ZM167.385 94.5028C166.531 105.696 174.923 115.463 186.134 116.322C191.528 116.747 196.87 115.007 200.975 111.488C205.08 107.968 207.61 102.96 208.004 97.5724C208.847 86.3785 200.443 76.6207 189.231 75.7734C178.019 74.9261 168.24 83.3098 167.385 94.5028Z" fill="#505F98"/>
</svg>
