<svg width="673" height="570" viewBox="0 0 673 570" fill="none" xmlns="http://www.w3.org/2000/svg">
<g id="hero">
<path id="Path" opacity="0.24" d="M108.659 478.853C75.591 483.491 41.5087 488.59 12.4103 511.274C8.51564 514.317 4.56125 517.905 2.41245 523.382C-1.90007 534.399 2.99442 548.921 10.5898 555.552C18.1852 562.183 27.5564 562.939 36.4948 563.484C195.655 573.158 355.054 569.36 514.349 565.583C560.608 564.492 607.598 563.232 651.932 544.493C659.9 541.136 668.66 536.099 671.659 525.124C675.584 510.771 666.63 494.864 656.185 490.394C645.739 485.925 634.592 489.261 623.789 491.213C586.274 497.991 548.431 487.625 511.081 479.336C437.962 463.135 362.098 449.957 288.039 447.502C262.79 446.683 241.228 458.896 216.516 463.723C180.837 470.732 144.532 473.817 108.659 478.853Z" fill="#505F98"/>
<rect id="Rectangle" x="275.907" y="365.393" width="104.524" height="87.3984" fill="#505F98"/>
<rect id="Rectangle_2" x="275.907" y="365.393" width="104.524" height="87.3984" fill="url(#paint0_linear)"/>
<rect id="Rectangle_3" x="54.0596" y="0.878174" width="552.484" height="378.371" rx="9.37" fill="#505F98"/>
<path id="Path_2" opacity="0.65" d="M588.412 32.254V345.742C588.43 350.943 586.379 355.939 582.713 359.625C579.046 363.312 574.065 365.387 568.868 365.393H87.4696C82.2742 365.381 77.2963 363.304 73.631 359.619C69.9657 355.933 67.9132 350.942 67.9251 345.742V32.254C67.9132 27.0539 69.9657 22.062 73.631 18.3766C77.2963 14.6912 82.2742 12.6141 87.4696 12.6023H568.868C574.065 12.6082 579.046 14.6834 582.713 18.3701C586.379 22.0568 588.43 27.0521 588.412 32.254V32.254Z" fill="url(#paint1_linear)"/>
<rect id="Rectangle_4" x="227.911" y="442.133" width="219.714" height="22.3825" fill="#505F98"/>
<rect id="Rectangle_5" x="275.907" y="429.343" width="104.524" height="12.79" fill="url(#paint2_linear)"/>
<path id="Path_3" d="M588.412 32.3341V39.2481H67.9251V32.3341C67.9132 27.1128 69.9659 22.1006 73.6315 18.4002C77.2972 14.6998 82.2755 12.6142 87.4713 12.6023H568.866C574.064 12.6082 579.045 14.6919 582.712 18.3936C586.379 22.0954 588.43 27.111 588.412 32.3341V32.3341Z" fill="url(#paint3_linear)"/>
<rect id="Rectangle_6" x="78.5908" y="73.3549" width="50.1289" height="241.944" fill="url(#paint4_linear)"/>
<rect id="Rectangle_7" x="204.446" y="90.4082" width="235.712" height="222.759" fill="url(#paint5_linear)"/>
<rect id="Rectangle_8" x="474.289" y="52.0382" width="106.657" height="106.583" fill="url(#paint6_linear)"/>
<rect id="Rectangle_9" x="474.289" y="169.28" width="106.657" height="106.583" fill="url(#paint7_linear)"/>
<rect id="Rectangle_10" opacity="0.65" x="78.5908" y="72.2891" width="50.1289" height="13.8558" fill="url(#paint8_linear)"/>
<g id="designer">
<path id="Path_4" d="M196.599 243.888C195.881 240.089 195.428 234.712 196.806 234.342C199.714 233.523 196.599 243.888 196.599 243.888Z" fill="#28353D"/>
<path id="Path_5" d="M349.289 452.266C348.771 465.69 338.366 515.024 338.028 528.47C338.028 532.945 339.222 539.813 337.78 544.132C334.808 553.282 324.267 552.029 322.894 546.637L322.376 543.953C317.488 517.82 325.348 488.175 322.376 454.056C320.596 433.226 312.308 393.065 306.881 392.797C304.02 392.797 238.73 530.439 233.054 538.919C230.262 543.192 222.402 542.521 218.595 545.966C214.789 549.412 250.306 441.616 265.193 384.653C268.665 372.896 270.929 360.819 271.949 348.609C272.355 341.561 270.08 339.19 276.589 337.109C281.093 335.677 287.332 336.08 292.151 335.744C297.399 335.341 346.204 335.252 346.204 338.697C345.731 357.402 350.55 421.256 349.289 452.266Z" fill="#606161"/>
<path id="Path_6" d="M349.289 452.266C348.771 465.69 338.366 515.024 338.028 528.47C338.028 532.945 339.222 539.813 337.78 544.132C334.808 553.282 324.267 552.029 322.894 546.637L322.376 543.953C317.488 517.82 325.348 488.175 322.376 454.056C320.596 433.226 312.308 393.065 306.881 392.797C304.02 392.797 238.73 530.439 233.054 538.919C230.262 543.192 222.402 542.521 218.595 545.966C214.789 549.412 250.306 441.616 265.193 384.653C268.665 372.896 270.929 360.819 271.949 348.609C272.355 341.561 270.08 339.19 276.589 337.109C281.093 335.677 287.332 336.08 292.151 335.744C297.399 335.341 346.204 335.252 346.204 338.697C345.731 357.402 350.55 421.256 349.289 452.266Z" fill="url(#paint9_linear)"/>
<path id="Path_7" d="M291.656 166.241C291.246 161.992 289.239 159.688 287.278 159.688C285.317 159.688 284.109 161.947 284.519 166.241C284.612 169.41 287.004 172.048 290.174 172.478C292.158 172.478 292.09 170.489 291.656 166.241Z" fill="#FFCD9C"/>
<path id="Path_8" d="M326.183 166.252C326.449 161.996 328.407 159.688 330.431 159.688C332.455 159.688 333.767 161.951 333.456 166.252C333.428 169.465 331.035 172.144 327.895 172.478C325.893 172.478 325.871 170.508 326.183 166.252Z" fill="#FFCD9C"/>
<path id="Path_9" d="M330.152 184.918C329.876 187.162 320.374 196.992 309.561 196.992C298.748 196.992 289.821 188.015 287.934 184.424C286.048 180.833 293.64 134.646 298.035 130.786C302.429 126.926 320.236 129.462 321.732 131.504C325.321 136.329 331.326 175.963 330.152 184.918Z" fill="#F4AD7D"/>
<path id="Path_10" d="M325.682 150.07C324.212 150.776 318.44 136.07 317.229 133.601C316.019 131.132 316.213 128.596 317.683 127.891C319.154 127.185 321.315 128.64 322.526 131.088C323.737 133.535 327.131 149.387 325.682 150.07Z" fill="#FFCD9C"/>
<path id="Path_11" d="M293.313 149.016C291.788 148.497 295.825 133.232 296.705 130.594C297.586 127.956 299.562 126.22 301 126.738C302.439 127.257 303.04 129.827 302.16 132.488C301.279 135.149 294.751 149.534 293.313 149.016Z" fill="#FFCD9C"/>
<path id="Path_12" d="M299.363 183.136H322.559L326.036 205.116C313.399 211.918 306.031 211.168 296.172 203.614L299.363 183.136Z" fill="#F4AD7D"/>
<path id="Path_13" d="M308.97 187.538C308.97 187.133 309.935 186.792 311.104 186.792C312.272 186.792 313.237 187.133 313.237 187.538C313.237 187.943 312.297 188.007 311.104 188.007C309.91 188.007 308.97 187.964 308.97 187.538Z" fill="#F4AD7D"/>
<path id="Path_14" d="M331.388 177.602C332.266 172.365 333.699 134.862 330.187 129.899C326.675 124.935 305.647 121.724 302.459 122.498C295.319 124.229 296.567 129.329 296.567 129.329C294.444 129.361 292.367 129.934 290.536 130.991C288.086 132.631 282.934 156.266 287.047 174.141C288.895 182.178 296.174 189.169 308.744 189.51C324.225 189.92 330.325 184.091 331.388 177.602Z" fill="#606161"/>
<path id="Path_15" d="M302.546 124.261C304.208 122.861 306.36 122.2 308.514 122.427C315.05 122.392 321.534 123.598 327.629 125.982C331.008 127.166 334.077 129.109 336.603 131.665C339.148 134.292 340.319 137.974 339.767 141.604C338.645 146.948 333.036 150.253 331.196 155.393C329.715 159.513 330.77 163.498 330.815 167.641C330.845 170.991 330.604 174.338 330.097 177.649C329.065 184.101 323.164 189.898 308.02 189.513C295.815 189.173 288.748 182.222 286.953 174.23C284.523 160.965 285.16 147.313 288.815 134.337C295.393 135.864 302.123 136.624 308.873 136.601C316.03 136.661 323.166 135.824 330.119 134.11C331.308 141.038 331.286 154.917 330.905 165.287" fill="#606161"/>
<path id="Path_16" d="M264.231 205.469C260.571 205.775 257.044 206.994 253.972 209.014C248.709 213.161 248.309 220.898 248.398 227.632C248.218 236.962 248.864 246.289 250.33 255.503C251.907 263.954 254.771 272.07 257.125 280.342C260.835 293.803 262.783 307.692 262.921 321.658C262.921 329.328 262.787 337.756 267.561 343.754C272.78 350.265 282.017 351.536 290.322 352.004C302.113 352.695 313.949 352.784 325.74 352.294C333.645 351.937 342.061 351.157 348.323 346.296C353.319 342.416 365.021 211.155 355.939 207.832C346.857 204.51 337.087 203.663 327.45 202.86C305.844 201.032 285.503 199.583 264.231 205.469Z" fill="#505F98"/>
<path id="Path_17" d="M333.125 473.353C331.967 488.237 329.204 542.322 329.204 542.322L322.164 542.077C317.33 516.091 325.105 486.612 322.164 452.684C320.404 431.971 312.206 392.035 306.837 391.768C308.441 378.419 317.464 380.422 317.464 380.422C324.026 390.221 329.685 400.594 334.373 411.414C339.742 425.474 334.306 458.402 333.125 473.353Z" fill="url(#paint10_linear)"/>
<path id="Path_18" d="M200.581 543.413C199.482 544.226 198.648 545.338 198.181 546.612C197.931 547.66 198.032 548.76 198.47 549.746C199.713 552.262 202.069 554.066 204.848 554.633C207.594 555.155 210.406 555.251 213.182 554.918L222.072 554.326C224.334 554.273 226.578 553.911 228.739 553.252C230.903 552.583 232.689 551.06 233.673 549.045C234.197 547.561 234.401 545.987 234.273 544.421C234.273 537.168 231.695 531.273 223.65 533.048C215.223 534.611 207.306 538.168 200.581 543.413V543.413Z" fill="#505F98"/>
<path id="Path_19" d="M348.24 546.652C349.25 547.394 350.016 548.407 350.443 549.566C350.671 550.51 350.582 551.5 350.188 552.39C349.055 554.669 346.892 556.299 344.344 556.795C341.831 557.281 339.255 557.373 336.713 557.067L328.643 556.524C326.59 556.481 324.553 556.162 322.589 555.576C320.61 554.967 318.98 553.584 318.09 551.758C317.613 550.416 317.423 548.994 317.533 547.578C317.533 541.027 319.853 535.628 327.251 537.3C334.921 538.718 342.123 541.927 348.24 546.652V546.652Z" fill="#505F98"/>
<path id="Path_20" d="M354.988 207.65C354.988 207.65 389.858 228.075 400.33 253.895C410.802 279.715 366.032 341.945 366.032 341.945L356.451 332.154C356.451 332.154 379.82 285.199 376.207 273.454C372.594 261.71 358.441 250.765 358.441 250.765L354.988 207.65Z" fill="#505F98"/>
<path id="Path_21" d="M257.869 248.001C257.869 248.001 209.386 269.724 189.684 259.064C169.982 248.404 190.265 194.86 190.265 194.86L203.459 199.339C203.459 199.339 192.434 226.637 205.047 230.691C217.66 234.744 255.454 208.117 255.454 208.117L257.869 248.001Z" fill="#505F98"/>
<g id="Group 8">
<path id="Shape" fill-rule="evenodd" clip-rule="evenodd" d="M176.716 183.136H259.908V105.33H176.716V183.136ZM251.529 174.91H185.095V113.49H251.529V174.91Z" fill="#505F98"/>
<rect id="Rectangle_11" x="264.175" y="185.267" width="7.46601" height="9.5925" fill="url(#paint11_linear)"/>
<rect id="Rectangle_12" x="264.175" y="140.502" width="7.46601" height="9.5925" fill="url(#paint12_linear)"/>
<rect id="Rectangle_13" x="162.85" y="185.267" width="7.46601" height="9.5925" fill="url(#paint13_linear)"/>
<rect id="Rectangle_14" x="162.85" y="140.502" width="7.46601" height="9.5925" fill="url(#paint14_linear)"/>
<rect id="Rectangle_15" x="264.175" y="92.5398" width="7.46601" height="9.5925" fill="url(#paint15_linear)"/>
<rect id="Rectangle_16" x="163.917" y="92.5398" width="7.46601" height="9.5925" fill="url(#paint16_linear)"/>
<rect id="Rectangle_17" x="215.112" y="92.5398" width="7.46601" height="9.5925" fill="url(#paint17_linear)"/>
<rect id="Rectangle_18" x="215.112" y="185.267" width="7.46601" height="9.5925" fill="url(#paint18_linear)"/>
<path id="Shape_2" fill-rule="evenodd" clip-rule="evenodd" d="M176.716 183.136H259.908V105.33H176.716V183.136ZM251.529 174.91H185.095V113.49H251.529V174.91Z" fill="url(#paint19_linear)"/>
</g>
<path id="Path_22" d="M350.12 336.59C348.725 337.496 347.595 338.713 346.832 340.13C346.374 341.332 346.209 342.615 346.349 343.884C346.264 346.964 347.665 349.917 350.166 351.929C351.923 352.87 353.892 353.413 355.914 353.516C357.154 353.72 358.422 353.72 359.662 353.516C360.927 353.292 361.983 352.484 362.467 351.371C362.633 350.667 362.702 349.946 362.674 349.226C362.835 345.686 365.502 342.79 367.71 339.894C368.243 339.334 368.587 338.64 368.699 337.899C368.686 337.078 368.378 336.285 367.825 335.646C366.33 333.63 362.628 329.919 359.662 330.24C356.696 330.562 352.419 334.831 350.12 336.59Z" fill="#F4AD7D"/>
<path id="Path_23" d="M213.727 188.928C214.358 188.051 214.789 187.057 214.991 186.011C215.152 184.929 214.58 183.868 213.563 183.361C211.947 182.759 210.027 184.341 208.434 183.673C207.895 183.386 207.444 182.972 207.123 182.47C205.242 179.88 204.163 176.84 204.008 173.696C204.1 172.02 203.942 170.341 203.54 168.707C203.066 167.026 201.379 165.922 199.559 166.101C198.06 166.436 197.217 167.883 196.28 169.041C195.343 170.199 193.47 171.58 192.252 173.027C190.173 176.002 188.983 179.459 188.81 183.027C188.154 187.481 187.733 192.581 191.011 195.787C193.54 198.259 201.245 201.177 204.781 199.863C208.692 198.393 211.759 192.135 213.727 188.928Z" fill="#F4AD7D"/>
</g>
</g>
<defs>
<linearGradient id="paint0_linear" x1="406.082" y1="438.213" x2="417.189" y2="303.132" gradientUnits="userSpaceOnUse">
<stop stop-color="#010101" stop-opacity="0.01"/>
<stop offset="0.95" stop-color="#010101"/>
</linearGradient>
<linearGradient id="paint1_linear" x1="-22.0771" y1="-55.0603" x2="-24.9711" y2="424.09" gradientUnits="userSpaceOnUse">
<stop stop-color="white" stop-opacity="0.01"/>
<stop offset="0.07" stop-color="white" stop-opacity="0.22"/>
<stop offset="0.16" stop-color="white" stop-opacity="0.45"/>
<stop offset="0.25" stop-color="white" stop-opacity="0.65"/>
<stop offset="0.33" stop-color="white" stop-opacity="0.8"/>
<stop offset="0.4" stop-color="white" stop-opacity="0.91"/>
<stop offset="0.46" stop-color="white" stop-opacity="0.98"/>
<stop offset="0.51" stop-color="white"/>
</linearGradient>
<linearGradient id="paint2_linear" x1="-292.43" y1="411.302" x2="-292.324" y2="562.899" gradientUnits="userSpaceOnUse">
<stop stop-color="#010101" stop-opacity="0.01"/>
<stop offset="0.95" stop-color="#010101"/>
</linearGradient>
<linearGradient id="paint3_linear" x1="935.851" y1="140.466" x2="972.285" y2="-293.447" gradientUnits="userSpaceOnUse">
<stop stop-color="white" stop-opacity="0.01"/>
<stop offset="0.07" stop-color="white" stop-opacity="0.22"/>
<stop offset="0.16" stop-color="white" stop-opacity="0.45"/>
<stop offset="0.25" stop-color="white" stop-opacity="0.65"/>
<stop offset="0.33" stop-color="white" stop-opacity="0.8"/>
<stop offset="0.4" stop-color="white" stop-opacity="0.91"/>
<stop offset="0.46" stop-color="white" stop-opacity="0.98"/>
<stop offset="0.51" stop-color="white"/>
</linearGradient>
<linearGradient id="paint4_linear" x1="54.5338" y1="23.1219" x2="201.626" y2="415.639" gradientUnits="userSpaceOnUse">
<stop stop-color="white" stop-opacity="0.01"/>
<stop offset="0.07" stop-color="white" stop-opacity="0.22"/>
<stop offset="0.16" stop-color="white" stop-opacity="0.45"/>
<stop offset="0.25" stop-color="white" stop-opacity="0.65"/>
<stop offset="0.33" stop-color="white" stop-opacity="0.8"/>
<stop offset="0.4" stop-color="white" stop-opacity="0.91"/>
<stop offset="0.46" stop-color="white" stop-opacity="0.98"/>
<stop offset="0.51" stop-color="white"/>
</linearGradient>
<linearGradient id="paint5_linear" x1="164.88" y1="47.7644" x2="161.336" y2="349.084" gradientUnits="userSpaceOnUse">
<stop stop-color="white" stop-opacity="0.01"/>
<stop offset="0.07" stop-color="white" stop-opacity="0.22"/>
<stop offset="0.16" stop-color="white" stop-opacity="0.45"/>
<stop offset="0.25" stop-color="white" stop-opacity="0.65"/>
<stop offset="0.33" stop-color="white" stop-opacity="0.8"/>
<stop offset="0.4" stop-color="white" stop-opacity="0.91"/>
<stop offset="0.46" stop-color="white" stop-opacity="0.98"/>
<stop offset="0.51" stop-color="white"/>
</linearGradient>
<linearGradient id="paint6_linear" x1="456.502" y1="31.6422" x2="454.599" y2="175.702" gradientUnits="userSpaceOnUse">
<stop stop-color="white" stop-opacity="0.01"/>
<stop offset="0.07" stop-color="white" stop-opacity="0.22"/>
<stop offset="0.16" stop-color="white" stop-opacity="0.45"/>
<stop offset="0.25" stop-color="white" stop-opacity="0.65"/>
<stop offset="0.33" stop-color="white" stop-opacity="0.8"/>
<stop offset="0.4" stop-color="white" stop-opacity="0.91"/>
<stop offset="0.46" stop-color="white" stop-opacity="0.98"/>
<stop offset="0.51" stop-color="white"/>
</linearGradient>
<linearGradient id="paint7_linear" x1="456.502" y1="148.884" x2="454.599" y2="292.944" gradientUnits="userSpaceOnUse">
<stop stop-color="white" stop-opacity="0.01"/>
<stop offset="0.07" stop-color="white" stop-opacity="0.22"/>
<stop offset="0.16" stop-color="white" stop-opacity="0.45"/>
<stop offset="0.25" stop-color="white" stop-opacity="0.65"/>
<stop offset="0.33" stop-color="white" stop-opacity="0.8"/>
<stop offset="0.4" stop-color="white" stop-opacity="0.91"/>
<stop offset="0.46" stop-color="white" stop-opacity="0.98"/>
<stop offset="0.51" stop-color="white"/>
</linearGradient>
<linearGradient id="paint8_linear" x1="68.7084" y1="69.3912" x2="68.6899" y2="88.7896" gradientUnits="userSpaceOnUse">
<stop stop-color="white" stop-opacity="0.01"/>
<stop offset="0.07" stop-color="white" stop-opacity="0.22"/>
<stop offset="0.16" stop-color="white" stop-opacity="0.45"/>
<stop offset="0.25" stop-color="white" stop-opacity="0.65"/>
<stop offset="0.33" stop-color="white" stop-opacity="0.8"/>
<stop offset="0.4" stop-color="white" stop-opacity="0.91"/>
<stop offset="0.46" stop-color="white" stop-opacity="0.98"/>
<stop offset="0.51" stop-color="white"/>
</linearGradient>
<linearGradient id="paint9_linear" x1="350.705" y1="427.757" x2="248.285" y2="252.129" gradientUnits="userSpaceOnUse">
<stop stop-color="#010101" stop-opacity="0.01"/>
<stop offset="0.95" stop-color="#010101"/>
</linearGradient>
<linearGradient id="paint10_linear" x1="351.794" y1="-64.2529" x2="167.527" y2="-59.0626" gradientUnits="userSpaceOnUse">
<stop stop-color="#010101" stop-opacity="0.01"/>
<stop offset="0.95" stop-color="#010101"/>
</linearGradient>
<linearGradient id="paint11_linear" x1="506.84" y1="242.507" x2="527.291" y2="-373.459" gradientUnits="userSpaceOnUse">
<stop stop-color="#010101" stop-opacity="0.01"/>
<stop offset="0.95" stop-color="#010101"/>
</linearGradient>
<linearGradient id="paint12_linear" x1="505.932" y1="242.87" x2="526.383" y2="-373.096" gradientUnits="userSpaceOnUse">
<stop stop-color="#010101" stop-opacity="0.01"/>
<stop offset="0.95" stop-color="#010101"/>
</linearGradient>
<linearGradient id="paint13_linear" x1="405.553" y1="240.002" x2="426.034" y2="-375.963" gradientUnits="userSpaceOnUse">
<stop stop-color="#010101" stop-opacity="0.01"/>
<stop offset="0.95" stop-color="#010101"/>
</linearGradient>
<linearGradient id="paint14_linear" x1="404.645" y1="240.365" x2="425.126" y2="-375.6" gradientUnits="userSpaceOnUse">
<stop stop-color="#010101" stop-opacity="0.01"/>
<stop offset="0.95" stop-color="#010101"/>
</linearGradient>
<linearGradient id="paint15_linear" x1="504.932" y1="244.469" x2="525.413" y2="-371.496" gradientUnits="userSpaceOnUse">
<stop stop-color="#010101" stop-opacity="0.01"/>
<stop offset="0.95" stop-color="#010101"/>
</linearGradient>
<linearGradient id="paint16_linear" x1="404.711" y1="242.008" x2="425.162" y2="-373.958" gradientUnits="userSpaceOnUse">
<stop stop-color="#010101" stop-opacity="0.01"/>
<stop offset="0.95" stop-color="#010101"/>
</linearGradient>
<linearGradient id="paint17_linear" x1="455.861" y1="243.245" x2="476.342" y2="-372.698" gradientUnits="userSpaceOnUse">
<stop stop-color="#010101" stop-opacity="0.01"/>
<stop offset="0.95" stop-color="#010101"/>
</linearGradient>
<linearGradient id="paint18_linear" x1="457.796" y1="240.523" x2="478.277" y2="-375.442" gradientUnits="userSpaceOnUse">
<stop stop-color="#010101" stop-opacity="0.01"/>
<stop offset="0.95" stop-color="#010101"/>
</linearGradient>
<linearGradient id="paint19_linear" x1="90.0005" y1="256.038" x2="337.522" y2="486.998" gradientUnits="userSpaceOnUse">
<stop stop-color="white" stop-opacity="0.01"/>
<stop offset="0.07" stop-color="white" stop-opacity="0.22"/>
<stop offset="0.16" stop-color="white" stop-opacity="0.45"/>
<stop offset="0.25" stop-color="white" stop-opacity="0.65"/>
<stop offset="0.33" stop-color="white" stop-opacity="0.8"/>
<stop offset="0.4" stop-color="white" stop-opacity="0.91"/>
<stop offset="0.46" stop-color="white" stop-opacity="0.98"/>
<stop offset="0.51" stop-color="white"/>
</linearGradient>
</defs>
</svg>
