<svg width="276" height="380" viewBox="0 0 276 380" fill="none" xmlns="http://www.w3.org/2000/svg">
<path d="M3.9664e-05 236.014L115.83 0.0961156L184.816 33.8775L68.9864 269.795L3.9664e-05 236.014Z" fill="white"/>
<path d="M26.8451 228.743L40.9586 199.908L87.4227 222.59L73.3092 251.425L26.8451 228.743Z" fill="#505F98"/>
<path d="M26.8451 228.743L40.9586 199.908L87.4227 222.59L73.3092 251.425L26.8451 228.743Z" fill="url(#paint0_linear)"/>
<path d="M40.9607 200.133L55.0742 171.298L101.538 193.981L87.4248 222.815L40.9607 200.133Z" fill="#505F98"/>
<path d="M40.9607 200.133L55.0742 171.298L101.538 193.981L87.4248 222.815L40.9607 200.133Z" fill="url(#paint1_linear)"/>
<path d="M55.0574 171.514L69.1708 142.679L115.635 165.361L101.522 194.196L55.0574 171.514Z" fill="#505F98"/>
<path d="M55.0574 171.514L69.1708 142.679L115.635 165.361L101.522 194.196L55.0574 171.514Z" fill="url(#paint2_linear)"/>
<path d="M69.1938 142.925L83.3073 114.09L129.771 136.773L115.658 165.607L69.1938 142.925Z" fill="#505F98"/>
<path d="M69.1938 142.925L83.3073 114.09L129.771 136.773L115.658 165.607L69.1938 142.925Z" fill="url(#paint3_linear)"/>
<path d="M83.2997 114.287L97.4132 85.4522L143.877 108.135L129.764 136.97L83.2997 114.287Z" fill="#505F98"/>
<path d="M97.4152 85.698L111.529 56.8631L157.993 79.5455L143.879 108.38L97.4152 85.698Z" fill="#505F98"/>
<path d="M111.512 57.079L125.625 28.244L172.089 50.9264L157.976 79.7614L111.512 57.079Z" fill="#505F98"/>
<path d="M95.8271 89.2861L109.941 60.4512L156.405 83.1336L142.291 111.969L95.8271 89.2861Z" fill="url(#paint4_linear)"/>
<path d="M109.952 60.6573L124.065 31.8224L170.53 54.5048L156.416 83.3397L109.952 60.6573Z" fill="url(#paint5_linear)"/>
<path d="M22.3041 210.514L227.433 45.9805L275.545 105.806L70.4166 270.34L22.3041 210.514Z" fill="white"/>
<path d="M51.0277 215.143L76.0952 194.922L108.678 235.209L83.6101 255.43L51.0277 215.143Z" fill="#505F98"/>
<path d="M51.0277 215.143L76.0952 194.922L108.678 235.209L83.6101 255.43L51.0277 215.143Z" fill="url(#paint6_linear)"/>
<path d="M74.6456 195.376L99.6778 175.248L132.113 215.478L107.081 235.607L74.6456 195.376Z" fill="#505F98"/>
<path d="M74.6456 195.376L99.6778 175.248L132.113 215.478L107.081 235.607L74.6456 195.376Z" fill="url(#paint7_linear)"/>
<path d="M99.5896 175.449L124.622 155.32L157.057 195.551L132.025 215.679L99.5896 175.449Z" fill="#505F98"/>
<path d="M99.5896 175.449L124.622 155.32L157.057 195.551L132.025 215.679L99.5896 175.449Z" fill="url(#paint8_linear)"/>
<path d="M124.517 155.534L149.549 135.406L181.984 175.636L156.952 195.765L124.517 155.534Z" fill="#505F98"/>
<path d="M124.517 155.534L149.549 135.406L181.984 175.636L156.952 195.765L124.517 155.534Z" fill="url(#paint9_linear)"/>
<path d="M150.637 135.077L175.705 114.857L208.287 155.144L183.22 175.364L150.637 135.077Z" fill="#505F98"/>
<path d="M175.717 114.678L200.785 94.4578L233.367 134.745L208.3 154.965L175.717 114.678Z" fill="#505F98"/>
<path d="M199.325 95.739L224.357 75.6104L256.792 115.841L231.76 135.969L199.325 95.739Z" fill="#505F98"/>
<path d="M229.343 138.906L208.244 155.688L176.306 115.47L197.405 98.6877L229.343 138.906V138.906Z" fill="url(#paint10_linear)"/>
<path d="M196.368 98.3354L221.4 78.2068L253.835 118.437L228.802 138.566L196.368 98.3354Z" fill="url(#paint11_linear)"/>
<path d="M145.285 219.838V342.688H124.27V219.838C124.27 215.298 127.089 211.258 131.289 209.777V197.513C131.289 195.4 132.964 193.688 135.032 193.688C137.099 193.688 138.775 195.4 138.775 197.513V209.985C142.694 211.623 145.263 215.511 145.285 219.838V219.838Z" fill="#505F98"/>
<path d="M145.285 219.838V342.688H124.27V219.838C124.27 215.298 127.089 211.258 131.289 209.777V197.513C131.289 195.4 132.964 193.688 135.032 193.688C137.099 193.688 138.775 195.4 138.775 197.513V209.985C142.694 211.623 145.263 215.511 145.285 219.838V219.838Z" fill="url(#paint12_linear)"/>
<rect x="111.261" y="297.688" width="50.0346" height="9" rx="2.245" fill="#505F98"/>
<path d="M135.967 379.688V379.688C127.394 379.688 120.267 366.872 120.267 358.322V301.688H151.289V358.322C151.289 366.872 144.519 379.688 135.967 379.688Z" fill="#505F98"/>
<rect x="111.261" y="297.688" width="50.0346" height="9" rx="2.245" fill="url(#paint13_linear)"/>
<path d="M135.967 379.688V379.688C127.394 379.688 120.267 367.054 120.267 358.625V306.688H151.289V358.625C151.289 367.054 144.519 379.688 135.967 379.688Z" fill="url(#paint14_linear)"/>
<defs>
<linearGradient id="paint0_linear" x1="151.033" y1="295.853" x2="215.787" y2="167.287" gradientUnits="userSpaceOnUse">
<stop stop-color="#010101" stop-opacity="0.01"/>
<stop offset="0.95" stop-color="#010101"/>
</linearGradient>
<linearGradient id="paint1_linear" x1="206.194" y1="292.052" x2="299.048" y2="110.462" gradientUnits="userSpaceOnUse">
<stop stop-color="#010101" stop-opacity="0.01"/>
<stop offset="0.95" stop-color="#010101"/>
</linearGradient>
<linearGradient id="paint2_linear" x1="326.176" y1="300.78" x2="463.53" y2="-9.36412" gradientUnits="userSpaceOnUse">
<stop stop-color="#010101" stop-opacity="0.01"/>
<stop offset="0.95" stop-color="#010101"/>
</linearGradient>
<linearGradient id="paint3_linear" x1="454.01" y1="317.271" x2="658.94" y2="-130.134" gradientUnits="userSpaceOnUse">
<stop stop-color="#010101" stop-opacity="0.01"/>
<stop offset="0.36" stop-color="#010101" stop-opacity="0.36"/>
<stop offset="0.95" stop-color="#010101"/>
</linearGradient>
<linearGradient id="paint4_linear" x1="305.357" y1="212.252" x2="422.517" y2="-29.3433" gradientUnits="userSpaceOnUse">
<stop stop-color="white" stop-opacity="0.01"/>
<stop offset="0.07" stop-color="white" stop-opacity="0.22"/>
<stop offset="0.16" stop-color="white" stop-opacity="0.45"/>
<stop offset="0.25" stop-color="white" stop-opacity="0.65"/>
<stop offset="0.33" stop-color="white" stop-opacity="0.8"/>
<stop offset="0.4" stop-color="white" stop-opacity="0.91"/>
<stop offset="0.46" stop-color="white" stop-opacity="0.98"/>
<stop offset="0.51" stop-color="white"/>
</linearGradient>
<linearGradient id="paint5_linear" x1="227.281" y1="159.132" x2="291.478" y2="23.2427" gradientUnits="userSpaceOnUse">
<stop stop-color="white" stop-opacity="0.01"/>
<stop offset="0.07" stop-color="white" stop-opacity="0.22"/>
<stop offset="0.16" stop-color="white" stop-opacity="0.45"/>
<stop offset="0.25" stop-color="white" stop-opacity="0.65"/>
<stop offset="0.33" stop-color="white" stop-opacity="0.8"/>
<stop offset="0.4" stop-color="white" stop-opacity="0.91"/>
<stop offset="0.46" stop-color="white" stop-opacity="0.98"/>
<stop offset="0.51" stop-color="white"/>
</linearGradient>
<linearGradient id="paint6_linear" x1="135.368" y1="328.739" x2="248.799" y2="239.322" gradientUnits="userSpaceOnUse">
<stop stop-color="#010101" stop-opacity="0.01"/>
<stop offset="0.95" stop-color="#010101"/>
</linearGradient>
<linearGradient id="paint7_linear" x1="185.207" y1="348.676" x2="346.483" y2="223.554" gradientUnits="userSpaceOnUse">
<stop stop-color="#010101" stop-opacity="0.01"/>
<stop offset="0.95" stop-color="#010101"/>
</linearGradient>
<linearGradient id="paint8_linear" x1="290.151" y1="407.439" x2="546.315" y2="184.716" gradientUnits="userSpaceOnUse">
<stop stop-color="#010101" stop-opacity="0.01"/>
<stop offset="0.95" stop-color="#010101"/>
</linearGradient>
<linearGradient id="paint9_linear" x1="398.91" y1="476.553" x2="774.593" y2="158.138" gradientUnits="userSpaceOnUse">
<stop stop-color="#010101" stop-opacity="0.01"/>
<stop offset="0.36" stop-color="#010101" stop-opacity="0.36"/>
<stop offset="0.95" stop-color="#010101"/>
</linearGradient>
<linearGradient id="paint10_linear" x1="247.169" y1="239.439" x2="430.108" y2="108.01" gradientUnits="userSpaceOnUse">
<stop stop-color="white" stop-opacity="0.01"/>
<stop offset="0.07" stop-color="white" stop-opacity="0.22"/>
<stop offset="0.16" stop-color="white" stop-opacity="0.45"/>
<stop offset="0.25" stop-color="white" stop-opacity="0.65"/>
<stop offset="0.33" stop-color="white" stop-opacity="0.8"/>
<stop offset="0.4" stop-color="white" stop-opacity="0.91"/>
<stop offset="0.46" stop-color="white" stop-opacity="0.98"/>
<stop offset="0.51" stop-color="white"/>
</linearGradient>
<linearGradient id="paint11_linear" x1="260.782" y1="237.205" x2="376.64" y2="141.346" gradientUnits="userSpaceOnUse">
<stop stop-color="white" stop-opacity="0.01"/>
<stop offset="0.07" stop-color="white" stop-opacity="0.22"/>
<stop offset="0.16" stop-color="white" stop-opacity="0.45"/>
<stop offset="0.25" stop-color="white" stop-opacity="0.65"/>
<stop offset="0.33" stop-color="white" stop-opacity="0.8"/>
<stop offset="0.4" stop-color="white" stop-opacity="0.91"/>
<stop offset="0.46" stop-color="white" stop-opacity="0.98"/>
<stop offset="0.51" stop-color="white"/>
</linearGradient>
<linearGradient id="paint12_linear" x1="126.369" y1="403.432" x2="164.554" y2="403.454" gradientUnits="userSpaceOnUse">
<stop stop-color="white" stop-opacity="0.01"/>
<stop offset="0.07" stop-color="white" stop-opacity="0.22"/>
<stop offset="0.16" stop-color="white" stop-opacity="0.45"/>
<stop offset="0.25" stop-color="white" stop-opacity="0.65"/>
<stop offset="0.33" stop-color="white" stop-opacity="0.8"/>
<stop offset="0.4" stop-color="white" stop-opacity="0.91"/>
<stop offset="0.46" stop-color="white" stop-opacity="0.98"/>
<stop offset="0.51" stop-color="white"/>
</linearGradient>
<linearGradient id="paint13_linear" x1="53.077" y1="305.887" x2="64.7283" y2="344.62" gradientUnits="userSpaceOnUse">
<stop stop-color="#010101" stop-opacity="0.01"/>
<stop offset="0.95" stop-color="#010101"/>
</linearGradient>
<linearGradient id="paint14_linear" x1="77.875" y1="454.62" x2="178.777" y2="456.664" gradientUnits="userSpaceOnUse">
<stop stop-color="#010101" stop-opacity="0.01"/>
<stop offset="0.95" stop-color="#010101"/>
</linearGradient>
</defs>
</svg>
