<svg width="822" height="544" fill="none" xmlns="http://www.w3.org/2000/svg"><path opacity=".24" d="M131.972 452.613c-40.461 4.67-82.163 9.806-117.768 32.651-4.765 3.064-9.604 6.678-12.233 12.194-5.276 11.095.712 25.719 10.006 32.397 9.293 6.678 20.76 7.439 31.697 7.989 194.745 9.742 389.782 5.917 584.692 2.113 56.601-1.099 114.098-2.367 168.344-21.239 9.75-3.381 20.467-8.453 24.137-19.506 4.802-14.455-6.153-30.475-18.934-34.976-12.781-4.501-26.42-1.141-39.639.824-45.902 6.826-92.205-3.614-137.907-11.961-89.466-16.315-182.293-29.587-272.91-32.06-30.893-.824-57.276 11.476-87.513 16.337-43.656 7.058-88.079 10.165-131.972 15.237z" fill="#505F98"/><path fill="#505F98" d="M332.468 342h98.068v82h-98.068z"/><path fill="url(#paint0_linear)" d="M332.468 342h98.068v82h-98.068z"/><rect x="124.324" width="518.359" height="355" rx="9.37" fill="#505F98"/><path opacity=".65" d="M625.671 29.438v294.124a18.381 18.381 0 01-5.347 13.026 18.352 18.352 0 01-12.99 5.412H155.671a18.37 18.37 0 01-12.984-5.418 18.403 18.403 0 01-5.354-13.02V29.438a18.405 18.405 0 015.354-13.02A18.37 18.37 0 01155.671 11h451.663a18.35 18.35 0 0112.99 5.412 18.382 18.382 0 015.347 13.026z" fill="url(#paint1_linear)"/><path fill="#505F98" d="M287.437 414H493.58v21H287.437z"/><path fill="url(#paint2_linear)" d="M332.468 402h98.068v12h-98.068z"/><path d="M625.671 29.513V36H137.333v-6.487a18.519 18.519 0 015.354-13.073A18.336 18.336 0 01155.672 11h451.66a18.317 18.317 0 0112.992 5.434 18.496 18.496 0 015.347 13.08z" fill="url(#paint3_linear)"/><path fill="url(#paint4_linear)" d="M147.34 68h47.033v227H147.34z"/><path fill="url(#paint5_linear)" d="M265.422 84h221.153v209H265.422z"/><path fill="url(#paint6_linear)" d="M518.597 48h100.069v100H518.597z"/><path fill="url(#paint7_linear)" d="M518.597 158h100.069v100H518.597z"/><path opacity=".65" fill="url(#paint8_linear)" d="M147.34 67h47.033v13H147.34z"/><defs><linearGradient id="paint0_linear" x1="454.603" y1="410.322" x2="465.024" y2="283.584" gradientUnits="userSpaceOnUse"><stop stop-color="#010101" stop-opacity=".01"/><stop offset=".95" stop-color="#010101"/></linearGradient><linearGradient id="paint1_linear" x1="52.89" y1="-52.483" x2="50.175" y2="397.071" gradientUnits="userSpaceOnUse"><stop stop-color="#fff" stop-opacity=".01"/><stop offset=".07" stop-color="#fff" stop-opacity=".22"/><stop offset=".16" stop-color="#fff" stop-opacity=".45"/><stop offset=".25" stop-color="#fff" stop-opacity=".65"/><stop offset=".33" stop-color="#fff" stop-opacity=".8"/><stop offset=".4" stop-color="#fff" stop-opacity=".91"/><stop offset=".46" stop-color="#fff" stop-opacity=".98"/><stop offset=".51" stop-color="#fff"/></linearGradient><linearGradient id="paint2_linear" x1="-200.764" y1="385.073" x2="-200.664" y2="527.306" gradientUnits="userSpaceOnUse"><stop stop-color="#010101" stop-opacity=".01"/><stop offset=".95" stop-color="#010101"/></linearGradient><linearGradient id="paint3_linear" x1="951.649" y1="130.966" x2="985.834" y2="-276.145" gradientUnits="userSpaceOnUse"><stop stop-color="#fff" stop-opacity=".01"/><stop offset=".07" stop-color="#fff" stop-opacity=".22"/><stop offset=".16" stop-color="#fff" stop-opacity=".45"/><stop offset=".25" stop-color="#fff" stop-opacity=".65"/><stop offset=".33" stop-color="#fff" stop-opacity=".8"/><stop offset=".4" stop-color="#fff" stop-opacity=".91"/><stop offset=".46" stop-color="#fff" stop-opacity=".98"/><stop offset=".51" stop-color="#fff"/></linearGradient><linearGradient id="paint4_linear" x1="124.769" y1="20.87" x2="262.776" y2="389.142" gradientUnits="userSpaceOnUse"><stop stop-color="#fff" stop-opacity=".01"/><stop offset=".07" stop-color="#fff" stop-opacity=".22"/><stop offset=".16" stop-color="#fff" stop-opacity=".45"/><stop offset=".25" stop-color="#fff" stop-opacity=".65"/><stop offset=".33" stop-color="#fff" stop-opacity=".8"/><stop offset=".4" stop-color="#fff" stop-opacity=".91"/><stop offset=".46" stop-color="#fff" stop-opacity=".98"/><stop offset=".51" stop-color="#fff"/></linearGradient><linearGradient id="paint5_linear" x1="228.299" y1="43.99" x2="224.974" y2="326.698" gradientUnits="userSpaceOnUse"><stop stop-color="#fff" stop-opacity=".01"/><stop offset=".07" stop-color="#fff" stop-opacity=".22"/><stop offset=".16" stop-color="#fff" stop-opacity=".45"/><stop offset=".25" stop-color="#fff" stop-opacity=".65"/><stop offset=".33" stop-color="#fff" stop-opacity=".8"/><stop offset=".4" stop-color="#fff" stop-opacity=".91"/><stop offset=".46" stop-color="#fff" stop-opacity=".98"/><stop offset=".51" stop-color="#fff"/></linearGradient><linearGradient id="paint6_linear" x1="501.908" y1="28.864" x2="500.123" y2="164.026" gradientUnits="userSpaceOnUse"><stop stop-color="#fff" stop-opacity=".01"/><stop offset=".07" stop-color="#fff" stop-opacity=".22"/><stop offset=".16" stop-color="#fff" stop-opacity=".45"/><stop offset=".25" stop-color="#fff" stop-opacity=".65"/><stop offset=".33" stop-color="#fff" stop-opacity=".8"/><stop offset=".4" stop-color="#fff" stop-opacity=".91"/><stop offset=".46" stop-color="#fff" stop-opacity=".98"/><stop offset=".51" stop-color="#fff"/></linearGradient><linearGradient id="paint7_linear" x1="501.908" y1="138.864" x2="500.123" y2="274.026" gradientUnits="userSpaceOnUse"><stop stop-color="#fff" stop-opacity=".01"/><stop offset=".07" stop-color="#fff" stop-opacity=".22"/><stop offset=".16" stop-color="#fff" stop-opacity=".45"/><stop offset=".25" stop-color="#fff" stop-opacity=".65"/><stop offset=".33" stop-color="#fff" stop-opacity=".8"/><stop offset=".4" stop-color="#fff" stop-opacity=".91"/><stop offset=".46" stop-color="#fff" stop-opacity=".98"/><stop offset=".51" stop-color="#fff"/></linearGradient><linearGradient id="paint8_linear" x1="138.068" y1="64.281" x2="138.051" y2="82.481" gradientUnits="userSpaceOnUse"><stop stop-color="#fff" stop-opacity=".01"/><stop offset=".07" stop-color="#fff" stop-opacity=".22"/><stop offset=".16" stop-color="#fff" stop-opacity=".45"/><stop offset=".25" stop-color="#fff" stop-opacity=".65"/><stop offset=".33" stop-color="#fff" stop-opacity=".8"/><stop offset=".4" stop-color="#fff" stop-opacity=".91"/><stop offset=".46" stop-color="#fff" stop-opacity=".98"/><stop offset=".51" stop-color="#fff"/></linearGradient></defs></svg>