<svg width="235" height="426" fill="none" xmlns="http://www.w3.org/2000/svg"><path fill="url(#paint0_linear)" d="M94 90h7.005v9H94z"/><path fill="url(#paint1_linear)" d="M94 45h7.005v9H94z"/><path fill="url(#paint2_linear)" d="M0 90h7.005v9H0z"/><path fill="url(#paint3_linear)" d="M0 45h7.005v9H0z"/><path fill="url(#paint4_linear)" d="M94 0h7.005v9H94z"/><path fill="url(#paint5_linear)" d="M0 0h7.005v9H0z"/><path fill="url(#paint6_linear)" d="M48 0h7.005v9H48z"/><path fill-rule="evenodd" clip-rule="evenodd" d="M12.4 85h78.054V12H12.4v73zm70.192-7.718h-62.33V19.656h62.33v57.626z" fill="#505F98"/><path d="M38.651 132c-.673-3.564-1.098-8.61.195-8.957 2.728-.768-.195 8.957-.195 8.957z" fill="#28353D"/><path d="M181.911 327.507c-.486 12.595-10.249 58.881-10.566 71.497 0 4.198 1.12 10.643-.232 14.694-2.789 8.586-12.679 7.41-13.968 2.351l-.486-2.519c-4.585-24.518 2.79-52.332 0-84.344-1.669-19.543-9.445-57.223-14.537-57.475-2.684 0-63.942 129.14-69.267 137.096-2.62 4.01-9.995 3.38-13.566 6.613-3.57 3.232 29.752-97.905 43.72-151.35a169.211 169.211 0 006.339-33.818c.38-6.612-1.754-8.837 4.353-10.789 4.226-1.344 10.079-.966 14.601-1.281 4.924-.378 50.714-.462 50.714 2.771-.444 17.549 4.078 77.459 2.895 106.554z" fill="#606161"/><path d="M181.911 327.507c-.486 12.595-10.249 58.881-10.566 71.497 0 4.198 1.12 10.643-.232 14.694-2.789 8.586-12.679 7.41-13.968 2.351l-.486-2.519c-4.585-24.518 2.79-52.332 0-84.344-1.669-19.543-9.445-57.223-14.537-57.475-2.684 0-63.942 129.14-69.267 137.096-2.62 4.01-9.995 3.38-13.566 6.613-3.57 3.232 29.752-97.905 43.72-151.35a169.211 169.211 0 006.339-33.818c.38-6.612-1.754-8.837 4.353-10.789 4.226-1.344 10.079-.966 14.601-1.281 4.924-.378 50.714-.462 50.714 2.771-.444 17.549 4.078 77.459 2.895 106.554z" fill="url(#paint7_linear)"/><path d="M127.838 59.148C127.452 55.162 125.57 53 123.73 53c-1.84 0-2.974 2.12-2.589 6.148.088 2.974 2.332 5.449 5.306 5.852 1.861 0 1.797-1.866 1.391-5.852zm32.393.012c.251-3.994 2.087-6.16 3.986-6.16s3.131 2.124 2.839 6.16c-.027 3.013-2.272 5.527-5.218 5.84-1.878 0-1.899-1.848-1.607-5.84z" fill="#FFCD9C"/><path d="M163.956 76.672C163.697 78.777 154.782 88 144.637 88c-10.146 0-18.521-8.422-20.291-11.792-1.77-3.369 5.353-46.703 9.476-50.324 4.123-3.622 20.83-1.242 22.234.674 3.367 4.527 9.001 41.712 7.9 50.114z" fill="#F4AD7D"/><path d="M159.762 43.977c-1.379.662-6.795-13.135-7.931-15.452-1.135-2.317-.953-4.696.426-5.358 1.38-.662 3.408.703 4.544 3 1.136 2.296 4.32 17.169 2.961 17.81zm-30.37-.99c-1.431-.486 2.357-14.808 3.183-17.284.826-2.475 2.68-4.104 4.03-3.617 1.349.487 1.914 2.898 1.088 5.395-.827 2.496-6.952 15.993-8.301 15.506z" fill="#FFCD9C"/><path d="M135.069 75h21.763l3.262 20.622c-11.856 6.383-18.769 5.679-28.02-1.408L135.069 75z" fill="#F4AD7D"/><path d="M144.083 79.13c0-.38.905-.7 2.001-.7 1.096 0 2.001.32 2.001.7 0 .38-.881.44-2.001.44-1.12 0-2.001-.04-2.001-.44z" fill="#F4AD7D"/><path d="M165.116 69.808c.823-4.914 2.168-40.1-1.128-44.757-3.295-4.657-23.023-7.67-26.015-6.943-6.699 1.623-5.528 6.409-5.528 6.409-1.991.03-3.941.567-5.659 1.56-2.298 1.538-7.132 23.713-3.273 40.483 1.734 7.542 8.563 14.1 20.357 14.42 14.525.385 20.248-5.084 21.246-11.172z" fill="#606161"/><path d="M138.054 19.762a7.472 7.472 0 015.6-1.72 48.508 48.508 0 0117.934 3.334 22.13 22.13 0 018.42 5.332 11.02 11.02 0 012.968 9.326c-1.052 5.013-6.315 8.114-8.041 12.937-1.389 3.866-.4 7.604-.357 11.492a58.66 58.66 0 01-.674 9.389c-.968 6.054-6.505 11.492-20.713 11.131-11.452-.319-18.082-6.84-19.766-14.339a82.956 82.956 0 011.747-37.43 81.906 81.906 0 0018.819 2.125 80.467 80.467 0 0019.934-2.336c1.116 6.5 1.095 19.521.737 29.25" fill="#606161"/><path d="M102.106 95.954a20.654 20.654 0 00-9.625 3.326c-4.938 3.891-5.313 11.15-5.23 17.468a148.257 148.257 0 001.813 26.149c1.48 7.929 4.167 15.544 6.375 23.305a151.496 151.496 0 015.438 38.764c0 7.196-.125 15.104 4.354 20.731 4.896 6.109 13.563 7.301 21.355 7.741a332.14 332.14 0 0033.23.271c7.417-.334 15.313-1.066 21.188-5.627 4.687-3.64 15.667-126.794 7.146-129.91-8.521-3.118-17.688-3.913-26.73-4.666-20.271-1.715-39.355-3.075-59.314 2.448z" fill="#505F98"/><path d="M166.745 347.291c-1.087 13.964-3.678 64.709-3.678 64.709l-6.605-.23c-4.536-24.38 2.759-52.038 0-83.871-1.652-19.434-9.344-56.903-14.381-57.153 1.505-12.525 9.97-10.646 9.97-10.646a182.977 182.977 0 0115.865 29.078c5.037 13.192-.063 44.085-1.171 58.113z" fill="url(#paint8_linear)"/><path d="M42.388 413.024a6.524 6.524 0 00-2.252 3.001 4.606 4.606 0 00.271 2.94 8.57 8.57 0 005.985 4.585c2.576.49 5.214.581 7.819.268l8.34-.556a23.35 23.35 0 006.256-1.007 7.663 7.663 0 004.63-3.947c.49-1.392.682-2.87.562-4.339 0-6.805-2.419-12.335-9.967-10.67a50.013 50.013 0 00-21.644 9.725zm138.538 3.039a5.947 5.947 0 012.067 2.734 4.126 4.126 0 01-.239 2.649c-1.063 2.138-3.092 3.668-5.483 4.133a23.145 23.145 0 01-7.159.255l-7.573-.509a21.448 21.448 0 01-5.679-.89 6.955 6.955 0 01-4.221-3.582 9.495 9.495 0 01-.523-3.921c0-6.147 2.176-11.212 9.118-9.644a45.857 45.857 0 0119.692 8.775zM190.114 94s32.716 19.163 42.541 43.389C242.481 161.614 200.476 220 200.476 220l-8.989-9.186s21.925-44.055 18.536-55.074c-3.39-11.019-16.669-21.288-16.669-21.288L190.114 94zM97.05 131.859s-45.49 20.381-63.974 10.379C14.591 132.237 33.622 82 33.622 82l12.38 4.202s-10.345 25.613 1.489 29.416c11.834 3.803 47.293-21.18 47.293-21.18l2.266 37.421z" fill="#505F98"/><path d="M182.69 218.976a9.156 9.156 0 00-3.085 3.321 7.554 7.554 0 00-.453 3.522c-.079 2.89 1.235 5.66 3.581 7.548a12.823 12.823 0 005.394 1.49c1.163.191 2.353.191 3.516 0 1.187-.211 2.177-.969 2.632-2.013a7.54 7.54 0 00.194-2.013c.151-3.321 2.654-6.038 4.725-8.755.5-.525.823-1.176.927-1.872a3.298 3.298 0 00-.82-2.113c-1.402-1.892-4.875-5.374-7.658-5.073-2.783.302-6.796 4.308-8.953 5.958zM53.809 74.435a6.937 6.937 0 001.187-2.737c.15-1.015-.386-2.011-1.34-2.487-1.517-.564-3.319.92-4.813.293a3.292 3.292 0 01-1.23-1.129 15.29 15.29 0 01-2.922-8.232 15.923 15.923 0 00-.44-4.68c-.444-1.577-2.027-2.614-3.735-2.445-1.406.313-2.197 1.672-3.076 2.758s-2.636 2.382-3.779 3.74a17.882 17.882 0 00-3.23 9.382c-.615 4.179-1.01 8.963 2.066 11.972 2.373 2.32 9.601 5.057 12.919 3.824 3.67-1.38 6.547-7.25 8.393-10.26z" fill="#F4AD7D"/><defs><linearGradient id="paint0_linear" x1="321.677" y1="143.704" x2="340.864" y2="-434.215" gradientUnits="userSpaceOnUse"><stop stop-color="#010101" stop-opacity=".01"/><stop offset=".95" stop-color="#010101"/></linearGradient><linearGradient id="paint1_linear" x1="320.825" y1="141.045" x2="340.012" y2="-436.875" gradientUnits="userSpaceOnUse"><stop stop-color="#010101" stop-opacity=".01"/><stop offset=".95" stop-color="#010101"/></linearGradient><linearGradient id="paint2_linear" x1="227.711" y1="141.354" x2="246.928" y2="-436.565" gradientUnits="userSpaceOnUse"><stop stop-color="#010101" stop-opacity=".01"/><stop offset=".95" stop-color="#010101"/></linearGradient><linearGradient id="paint3_linear" x1="226.86" y1="138.694" x2="246.076" y2="-439.224" gradientUnits="userSpaceOnUse"><stop stop-color="#010101" stop-opacity=".01"/><stop offset=".95" stop-color="#010101"/></linearGradient><linearGradient id="paint4_linear" x1="319.886" y1="142.545" x2="339.102" y2="-435.373" gradientUnits="userSpaceOnUse"><stop stop-color="#010101" stop-opacity=".01"/><stop offset=".95" stop-color="#010101"/></linearGradient><linearGradient id="paint5_linear" x1="225.921" y1="140.236" x2="245.109" y2="-437.683" gradientUnits="userSpaceOnUse"><stop stop-color="#010101" stop-opacity=".01"/><stop offset=".95" stop-color="#010101"/></linearGradient><linearGradient id="paint6_linear" x1="273.878" y1="141.396" x2="293.094" y2="-436.501" gradientUnits="userSpaceOnUse"><stop stop-color="#010101" stop-opacity=".01"/><stop offset=".95" stop-color="#010101"/></linearGradient><linearGradient id="paint7_linear" x1="183.239" y1="304.512" x2="87.145" y2="139.732" gradientUnits="userSpaceOnUse"><stop stop-color="#010101" stop-opacity=".01"/><stop offset=".95" stop-color="#010101"/></linearGradient><linearGradient id="paint8_linear" x1="184.261" y1="-157.108" x2="11.375" y2="-152.239" gradientUnits="userSpaceOnUse"><stop stop-color="#010101" stop-opacity=".01"/><stop offset=".95" stop-color="#010101"/></linearGradient></defs></svg>