<svg width="145" height="143" fill="none" xmlns="http://www.w3.org/2000/svg"><path fill-rule="evenodd" clip-rule="evenodd" d="M144.945 59.241v20.474l-12.71.104a57.144 57.144 0 01-10.538 26.362l10.855 11.17-14.88 14.249-10.686-11.022a59.2 59.2 0 01-21.857 9.136V143H64.56v-12.971a58.032 58.032 0 01-24.47-9.535l-8.936 8.822-14.564-14.669 8.873-8.654a57.649 57.649 0 01-10.37-26.278H.845V59.24h14.753a57.187 57.187 0 0110.539-22.42l-8.241-8.487 14.88-14.25 8.43 8.738a55.942 55.942 0 0123.184-8.738V0h20.57v14.396a59.33 59.33 0 0123.185 10.08l10.538-10.31 14.48 14.543-10.538 10.478a57.776 57.776 0 018.641 20.054h13.679zM38.804 72.15c-.024 19.061 15.499 34.532 34.67 34.555a34.75 34.75 0 0024.577-10.06 34.35 34.35 0 0010.178-24.412c.024-19.06-15.5-34.532-34.67-34.555-19.172-.023-34.732 15.41-34.755 34.472z" fill="#505F98"/></svg>