<svg class="gears svg-absolute" width="231" height="144" fill="none" xmlns="http://www.w3.org/2000/svg"><path fill-rule="evenodd" clip-rule="evenodd" d="M145.024 59.704v20.473l-12.709.105a57.148 57.148 0 01-10.539 26.362l10.855 11.169-14.88 14.25-10.686-11.023a59.186 59.186 0 01-21.856 9.137v13.286H64.638v-12.972a58.03 58.03 0 01-24.47-9.534l-8.936 8.822-14.564-14.669 8.873-8.655a57.643 57.643 0 01-10.37-26.278H.925V59.704h14.753A57.188 57.188 0 0126.216 37.28l-8.241-8.486 14.88-14.25 8.43 8.738a55.942 55.942 0 0123.184-8.738V.463H85.04v14.396a59.33 59.33 0 0123.184 10.08l10.538-10.31 14.48 14.543-10.538 10.477a57.776 57.776 0 018.641 20.055h13.679zM38.883 72.612c-.024 19.062 15.499 34.533 34.67 34.556a34.75 34.75 0 0024.577-10.06 34.351 34.351 0 0010.178-24.412c.024-19.061-15.499-34.532-34.67-34.555-19.172-.023-34.732 15.41-34.755 34.471zm191.2 19.002l-.919 12.042-7.512-.459a33.645 33.645 0 01-7.283 15.021l5.864 7.063-9.349 7.708-5.76-6.937a34.763 34.763 0 01-13.189 4.395l-.605 7.813-12.041-.896.585-7.625a33.985 33.985 0 01-13.899-6.687l-5.634 4.791-7.867-9.187 5.571-4.709a33.949 33.949 0 01-4.904-15.895l-8.117-.626.897-12.02 8.619.645a34.017 34.017 0 017.116-12.729l-4.445-5.354 9.349-7.708 4.528 5.5a33.015 33.015 0 0113.919-4.167l.626-8.333 12.041.896-.647 8.479a34.414 34.414 0 0113.064 6.937l6.615-5.604 7.847 9.188-6.678 5.687a33.53 33.53 0 014.173 12.188l8.035.583zm-62.698 2.889c-.854 11.193 7.538 20.96 18.749 21.819a20.35 20.35 0 0014.841-4.834 20.28 20.28 0 007.029-13.916c.843-11.194-7.561-20.951-18.773-21.799-11.212-.847-20.991 7.537-21.846 18.73z" fill="#505F98"/></svg>