<svg width="86" height="85" fill="none" xmlns="http://www.w3.org/2000/svg"><path fill-rule="evenodd" clip-rule="evenodd" d="M85.997 38.354l-.918 12.042-7.513-.459a33.643 33.643 0 01-7.283 15.021l5.864 7.063-9.349 7.708-5.76-6.937a34.765 34.765 0 01-13.188 4.395L47.245 85l-12.041-.896.584-7.625a33.978 33.978 0 01-13.898-6.687l-5.634 4.791-7.868-9.187 5.572-4.709a33.939 33.939 0 01-4.904-15.895l-8.118-.625.898-12.021 8.618.646a34.027 34.027 0 017.116-12.73l-4.445-5.354L22.475 7l4.528 5.5a33.012 33.012 0 0113.919-4.167L41.548 0l12.04.896-.646 8.479a34.41 34.41 0 0113.063 6.938l6.616-5.605 7.846 9.188-6.678 5.687a33.527 33.527 0 014.174 12.188l8.034.583zM23.3 41.243c-.855 11.193 7.537 20.96 18.749 21.82a20.348 20.348 0 0014.84-4.835 20.28 20.28 0 007.03-13.916c.842-11.193-7.561-20.951-18.773-21.798-11.212-.848-20.991 7.536-21.846 18.729z" fill="#505F98"/></svg>