<svg width="1023" height="1112" fill="none" xmlns="http://www.w3.org/2000/svg"><path opacity=".5" d="M318.635 37.694C198.697 138.217 180.111 328.298 98.881 468.527c-28.277 48.795-64.814 92.465-83.877 146.596-43.766 123.903 16.468 264.449 97.089 362.858 38.443 46.949 83.347 89.959 137.677 109.739 41.78 15.22 86.578 15.85 130.555 16.25l770.465 7.93c86.02.87 181.6-2.28 243.45-68.69 42.63-45.732 59.94-112.518 74.64-176.266 18.05-78.331 34.42-163.398 6.32-238.004-32.09-85.358-113.24-133.73-163.65-207.385-81.81-119.332-79.93-299.824-184.11-395.089-48.64-44.462-112.82-61.898-175.357-70.616-117.899-16.46-229.577 14.61-345.358 10.277-98.969-3.699-205.986 2.747-288.09 71.567z" fill="#E7ECFF"/></svg>