<svg width="673" height="570" fill="none" xmlns="http://www.w3.org/2000/svg"><path opacity=".24" d="M108.659 478.853c-33.068 4.638-67.15 9.737-96.249 32.421-3.894 3.043-7.849 6.631-9.998 12.108-4.312 11.017.582 25.539 8.178 32.17 7.595 6.631 16.966 7.387 25.905 7.932 159.16 9.674 318.559 5.876 477.854 2.099 46.259-1.091 93.249-2.351 137.583-21.09 7.968-3.357 16.728-8.394 19.727-19.369 3.925-14.353-5.029-30.26-15.474-34.73-10.446-4.469-21.593-1.133-32.396.819-37.515 6.778-75.358-3.588-112.708-11.877-73.119-16.201-148.983-29.379-223.042-31.834-25.249-.819-46.811 11.394-71.523 16.221-35.679 7.009-71.984 10.094-107.857 15.13z" fill="#505F98"/><path fill="#505F98" d="M275.907 365.393h104.524v87.398H275.907z"/><path fill="url(#paint0_linear)" d="M275.907 365.393h104.524v87.398H275.907z"/><rect x="54.06" y=".878" width="552.484" height="378.371" rx="9.37" fill="#505F98"/><path opacity=".65" d="M588.412 32.254v313.488a19.593 19.593 0 01-5.699 13.883 19.558 19.558 0 01-13.845 5.768H87.47a19.582 19.582 0 01-13.839-5.774 19.616 19.616 0 01-5.706-13.877V32.254a19.616 19.616 0 015.706-13.877 19.58 19.58 0 0113.839-5.775h481.398a19.559 19.559 0 0113.845 5.768 19.595 19.595 0 015.699 13.884z" fill="url(#paint1_linear)"/><path fill="#505F98" d="M227.911 442.133h219.714v22.383H227.911z"/><path fill="url(#paint2_linear)" d="M275.907 429.343h104.524v12.79H275.907z"/><path d="M588.412 32.334v6.914H67.925v-6.914A19.736 19.736 0 0173.632 18.4a19.543 19.543 0 0113.84-5.798h481.394a19.52 19.52 0 0113.846 5.792 19.713 19.713 0 015.7 13.94z" fill="url(#paint3_linear)"/><path fill="url(#paint4_linear)" d="M78.591 73.355h50.129v241.944H78.591z"/><path fill="url(#paint5_linear)" d="M204.446 90.408h235.712v222.759H204.446z"/><path fill="url(#paint6_linear)" d="M474.289 52.038h106.657v106.583H474.289z"/><path fill="url(#paint7_linear)" d="M474.289 169.28h106.657v106.583H474.289z"/><path opacity=".65" fill="url(#paint8_linear)" d="M78.591 72.289h50.129v13.856H78.591z"/><path d="M196.599 243.888c-.718-3.799-1.171-9.176.207-9.546 2.908-.819-.207 9.546-.207 9.546z" fill="#28353D"/><path d="M349.289 452.266c-.518 13.424-10.923 62.758-11.261 76.204 0 4.475 1.194 11.343-.248 15.662-2.972 9.15-13.513 7.897-14.886 2.505l-.518-2.684c-4.888-26.133 2.972-55.778 0-89.897-1.78-20.83-10.068-60.991-15.495-61.259-2.861 0-68.151 137.642-73.827 146.122-2.792 4.273-10.652 3.602-14.459 7.047-3.806 3.446 31.711-104.35 46.598-161.313a180.244 180.244 0 006.756-36.044c.406-7.048-1.869-9.419 4.64-11.5 4.504-1.432 10.743-1.029 15.562-1.365 5.248-.403 54.053-.492 54.053 2.953-.473 18.705 4.346 82.559 3.085 113.569z" fill="#606161"/><path d="M349.289 452.266c-.518 13.424-10.923 62.758-11.261 76.204 0 4.475 1.194 11.343-.248 15.662-2.972 9.15-13.513 7.897-14.886 2.505l-.518-2.684c-4.888-26.133 2.972-55.778 0-89.897-1.78-20.83-10.068-60.991-15.495-61.259-2.861 0-68.151 137.642-73.827 146.122-2.792 4.273-10.652 3.602-14.459 7.047-3.806 3.446 31.711-104.35 46.598-161.313a180.244 180.244 0 006.756-36.044c.406-7.048-1.869-9.419 4.64-11.5 4.504-1.432 10.743-1.029 15.562-1.365 5.248-.403 54.053-.492 54.053 2.953-.473 18.705 4.346 82.559 3.085 113.569z" fill="url(#paint9_linear)"/><path d="M291.656 166.241c-.41-4.249-2.417-6.553-4.378-6.553-1.961 0-3.169 2.259-2.759 6.553.093 3.169 2.485 5.807 5.655 6.237 1.984 0 1.916-1.989 1.482-6.237zm34.527.011c.266-4.256 2.224-6.564 4.248-6.564s3.336 2.263 3.025 6.564c-.028 3.213-2.421 5.892-5.561 6.226-2.002 0-2.024-1.97-1.712-6.226z" fill="#FFCD9C"/><path d="M330.152 184.918c-.276 2.244-9.778 12.074-20.591 12.074s-19.74-8.977-21.627-12.568c-1.886-3.591 5.706-49.778 10.101-53.638 4.394-3.86 22.201-1.324 23.697.718 3.589 4.825 9.594 44.459 8.42 53.414z" fill="#F4AD7D"/><path d="M325.682 150.07c-1.47.706-7.242-14-8.453-16.469-1.21-2.469-1.016-5.005.454-5.71 1.471-.706 3.632.749 4.843 3.197 1.211 2.447 4.605 18.299 3.156 18.982zm-32.369-1.054c-1.525-.519 2.512-15.784 3.392-18.422.881-2.638 2.857-4.374 4.295-3.856 1.439.519 2.04 3.089 1.16 5.75-.881 2.661-7.409 17.046-8.847 16.528z" fill="#FFCD9C"/><path d="M299.363 183.136h23.196l3.477 21.98c-12.637 6.802-20.005 6.052-29.864-1.502l3.191-20.478z" fill="#F4AD7D"/><path d="M308.97 187.538c0-.405.965-.746 2.134-.746 1.168 0 2.133.341 2.133.746 0 .405-.94.469-2.133.469-1.194 0-2.134-.043-2.134-.469z" fill="#F4AD7D"/><path d="M331.388 177.602c.878-5.237 2.311-42.74-1.201-47.703-3.512-4.964-24.54-8.175-27.728-7.401-7.14 1.731-5.892 6.831-5.892 6.831a12.44 12.44 0 00-6.031 1.662c-2.45 1.64-7.602 25.275-3.489 43.15 1.848 8.037 9.127 15.028 21.697 15.369 15.481.41 21.581-5.419 22.644-11.908z" fill="#606161"/><path d="M302.546 124.261a7.963 7.963 0 015.968-1.834 51.707 51.707 0 0119.115 3.555 23.584 23.584 0 018.974 5.683 11.75 11.75 0 013.164 9.939c-1.122 5.344-6.731 8.649-8.571 13.789-1.481 4.12-.426 8.105-.381 12.248a62.43 62.43 0 01-.718 10.008c-1.032 6.452-6.933 12.249-22.077 11.864-12.205-.34-19.272-7.291-21.067-15.283a88.413 88.413 0 011.862-39.893 87.381 87.381 0 0020.058 2.264 85.754 85.754 0 0021.246-2.491c1.189 6.928 1.167 20.807.786 31.177" fill="#606161"/><path d="M264.231 205.469a22.012 22.012 0 00-10.259 3.545c-5.263 4.147-5.663 11.884-5.574 18.618-.18 9.33.466 18.657 1.932 27.871 1.577 8.451 4.441 16.567 6.795 24.839a161.508 161.508 0 015.796 41.316c0 7.67-.134 16.098 4.64 22.096 5.219 6.511 14.456 7.782 22.761 8.25 11.791.691 23.627.78 35.418.29 7.905-.357 16.321-1.137 22.583-5.998 4.996-3.88 16.698-135.141 7.616-138.464-9.082-3.322-18.852-4.169-28.489-4.972-21.606-1.828-41.947-3.277-63.219 2.609z" fill="#505F98"/><path d="M333.125 473.353c-1.158 14.884-3.921 68.969-3.921 68.969l-7.04-.245c-4.834-25.986 2.941-55.465 0-89.393-1.76-20.713-9.958-60.649-15.327-60.916 1.604-13.349 10.627-11.346 10.627-11.346a195.084 195.084 0 0116.909 30.992c5.369 14.06-.067 46.988-1.248 61.939z" fill="url(#paint10_linear)"/><path d="M200.581 543.413a6.962 6.962 0 00-2.4 3.199 4.91 4.91 0 00.289 3.134 9.138 9.138 0 006.378 4.887c2.746.522 5.558.618 8.334.285l8.89-.592a24.858 24.858 0 006.667-1.074 8.166 8.166 0 004.934-4.207c.524-1.484.728-3.058.6-4.624 0-7.253-2.578-13.148-10.623-11.373a53.324 53.324 0 00-23.069 10.365zm147.659 3.239a6.342 6.342 0 012.203 2.914 4.41 4.41 0 01-.255 2.824c-1.133 2.279-3.296 3.909-5.844 4.405a24.672 24.672 0 01-7.631.272l-8.07-.543a22.85 22.85 0 01-6.054-.948c-1.979-.609-3.609-1.992-4.499-3.818a10.13 10.13 0 01-.557-4.18c0-6.551 2.32-11.95 9.718-10.278 7.67 1.418 14.872 4.627 20.989 9.352zm6.748-339.002s34.87 20.425 45.342 46.245c10.472 25.82-34.298 88.05-34.298 88.05l-9.581-9.791s23.369-46.955 19.756-58.7c-3.613-11.744-17.766-22.689-17.766-22.689l-3.453-43.115zm-97.119 40.351s-48.483 21.723-68.185 11.063c-19.702-10.66.581-64.204.581-64.204l13.194 4.479s-11.025 27.298 1.588 31.352c12.613 4.053 50.407-22.574 50.407-22.574l2.415 39.884z" fill="#505F98"/><path fill-rule="evenodd" clip-rule="evenodd" d="M176.716 183.136h83.192V105.33h-83.192v77.806zm74.813-8.226h-66.434v-61.42h66.434v61.42z" fill="#505F98"/><path fill="url(#paint11_linear)" d="M264.175 185.267h7.466v9.592h-7.466z"/><path fill="url(#paint12_linear)" d="M264.175 140.502h7.466v9.592h-7.466z"/><path fill="url(#paint13_linear)" d="M162.85 185.267h7.466v9.592h-7.466z"/><path fill="url(#paint14_linear)" d="M162.85 140.502h7.466v9.592h-7.466z"/><path fill="url(#paint15_linear)" d="M264.175 92.54h7.466v9.592h-7.466z"/><path fill="url(#paint16_linear)" d="M163.917 92.54h7.466v9.592h-7.466z"/><path fill="url(#paint17_linear)" d="M215.112 92.54h7.466v9.592h-7.466z"/><path fill="url(#paint18_linear)" d="M215.112 185.267h7.466v9.592h-7.466z"/><path fill-rule="evenodd" clip-rule="evenodd" d="M176.716 183.136h83.192V105.33h-83.192v77.806zm74.813-8.226h-66.434v-61.42h66.434v61.42z" fill="url(#paint19_linear)"/><path d="M350.12 336.59a9.748 9.748 0 00-3.288 3.54 8.05 8.05 0 00-.483 3.754c-.085 3.08 1.316 6.033 3.817 8.045a13.66 13.66 0 005.748 1.587c1.24.204 2.508.204 3.748 0 1.265-.224 2.321-1.032 2.805-2.145a7.99 7.99 0 00.207-2.145c.161-3.54 2.828-6.436 5.036-9.332.533-.56.877-1.254.989-1.995a3.526 3.526 0 00-.874-2.253c-1.495-2.016-5.197-5.727-8.163-5.406-2.966.322-7.243 4.591-9.542 6.35zM213.727 188.928a7.397 7.397 0 001.264-2.917c.161-1.082-.411-2.143-1.428-2.65-1.616-.602-3.536.98-5.129.312a3.508 3.508 0 01-1.311-1.203 16.287 16.287 0 01-3.115-8.774 16.975 16.975 0 00-.468-4.989c-.474-1.681-2.161-2.785-3.981-2.606-1.499.335-2.342 1.782-3.279 2.94-.937 1.158-2.81 2.539-4.028 3.986-2.079 2.975-3.269 6.432-3.442 10-.656 4.454-1.077 9.554 2.201 12.76 2.529 2.472 10.234 5.39 13.77 4.076 3.911-1.47 6.978-7.728 8.946-10.935z" fill="#F4AD7D"/><defs><linearGradient id="paint0_linear" x1="406.082" y1="438.213" x2="417.189" y2="303.132" gradientUnits="userSpaceOnUse"><stop stop-color="#010101" stop-opacity=".01"/><stop offset=".95" stop-color="#010101"/></linearGradient><linearGradient id="paint1_linear" x1="-22.077" y1="-55.06" x2="-24.971" y2="424.09" gradientUnits="userSpaceOnUse"><stop stop-color="#fff" stop-opacity=".01"/><stop offset=".07" stop-color="#fff" stop-opacity=".22"/><stop offset=".16" stop-color="#fff" stop-opacity=".45"/><stop offset=".25" stop-color="#fff" stop-opacity=".65"/><stop offset=".33" stop-color="#fff" stop-opacity=".8"/><stop offset=".4" stop-color="#fff" stop-opacity=".91"/><stop offset=".46" stop-color="#fff" stop-opacity=".98"/><stop offset=".51" stop-color="#fff"/></linearGradient><linearGradient id="paint2_linear" x1="-292.43" y1="411.302" x2="-292.324" y2="562.899" gradientUnits="userSpaceOnUse"><stop stop-color="#010101" stop-opacity=".01"/><stop offset=".95" stop-color="#010101"/></linearGradient><linearGradient id="paint3_linear" x1="935.851" y1="140.466" x2="972.285" y2="-293.447" gradientUnits="userSpaceOnUse"><stop stop-color="#fff" stop-opacity=".01"/><stop offset=".07" stop-color="#fff" stop-opacity=".22"/><stop offset=".16" stop-color="#fff" stop-opacity=".45"/><stop offset=".25" stop-color="#fff" stop-opacity=".65"/><stop offset=".33" stop-color="#fff" stop-opacity=".8"/><stop offset=".4" stop-color="#fff" stop-opacity=".91"/><stop offset=".46" stop-color="#fff" stop-opacity=".98"/><stop offset=".51" stop-color="#fff"/></linearGradient><linearGradient id="paint4_linear" x1="54.534" y1="23.122" x2="201.626" y2="415.639" gradientUnits="userSpaceOnUse"><stop stop-color="#fff" stop-opacity=".01"/><stop offset=".07" stop-color="#fff" stop-opacity=".22"/><stop offset=".16" stop-color="#fff" stop-opacity=".45"/><stop offset=".25" stop-color="#fff" stop-opacity=".65"/><stop offset=".33" stop-color="#fff" stop-opacity=".8"/><stop offset=".4" stop-color="#fff" stop-opacity=".91"/><stop offset=".46" stop-color="#fff" stop-opacity=".98"/><stop offset=".51" stop-color="#fff"/></linearGradient><linearGradient id="paint5_linear" x1="164.88" y1="47.764" x2="161.336" y2="349.084" gradientUnits="userSpaceOnUse"><stop stop-color="#fff" stop-opacity=".01"/><stop offset=".07" stop-color="#fff" stop-opacity=".22"/><stop offset=".16" stop-color="#fff" stop-opacity=".45"/><stop offset=".25" stop-color="#fff" stop-opacity=".65"/><stop offset=".33" stop-color="#fff" stop-opacity=".8"/><stop offset=".4" stop-color="#fff" stop-opacity=".91"/><stop offset=".46" stop-color="#fff" stop-opacity=".98"/><stop offset=".51" stop-color="#fff"/></linearGradient><linearGradient id="paint6_linear" x1="456.502" y1="31.642" x2="454.599" y2="175.702" gradientUnits="userSpaceOnUse"><stop stop-color="#fff" stop-opacity=".01"/><stop offset=".07" stop-color="#fff" stop-opacity=".22"/><stop offset=".16" stop-color="#fff" stop-opacity=".45"/><stop offset=".25" stop-color="#fff" stop-opacity=".65"/><stop offset=".33" stop-color="#fff" stop-opacity=".8"/><stop offset=".4" stop-color="#fff" stop-opacity=".91"/><stop offset=".46" stop-color="#fff" stop-opacity=".98"/><stop offset=".51" stop-color="#fff"/></linearGradient><linearGradient id="paint7_linear" x1="456.502" y1="148.884" x2="454.599" y2="292.944" gradientUnits="userSpaceOnUse"><stop stop-color="#fff" stop-opacity=".01"/><stop offset=".07" stop-color="#fff" stop-opacity=".22"/><stop offset=".16" stop-color="#fff" stop-opacity=".45"/><stop offset=".25" stop-color="#fff" stop-opacity=".65"/><stop offset=".33" stop-color="#fff" stop-opacity=".8"/><stop offset=".4" stop-color="#fff" stop-opacity=".91"/><stop offset=".46" stop-color="#fff" stop-opacity=".98"/><stop offset=".51" stop-color="#fff"/></linearGradient><linearGradient id="paint8_linear" x1="68.708" y1="69.391" x2="68.69" y2="88.79" gradientUnits="userSpaceOnUse"><stop stop-color="#fff" stop-opacity=".01"/><stop offset=".07" stop-color="#fff" stop-opacity=".22"/><stop offset=".16" stop-color="#fff" stop-opacity=".45"/><stop offset=".25" stop-color="#fff" stop-opacity=".65"/><stop offset=".33" stop-color="#fff" stop-opacity=".8"/><stop offset=".4" stop-color="#fff" stop-opacity=".91"/><stop offset=".46" stop-color="#fff" stop-opacity=".98"/><stop offset=".51" stop-color="#fff"/></linearGradient><linearGradient id="paint9_linear" x1="350.705" y1="427.757" x2="248.285" y2="252.129" gradientUnits="userSpaceOnUse"><stop stop-color="#010101" stop-opacity=".01"/><stop offset=".95" stop-color="#010101"/></linearGradient><linearGradient id="paint10_linear" x1="351.794" y1="-64.253" x2="167.527" y2="-59.063" gradientUnits="userSpaceOnUse"><stop stop-color="#010101" stop-opacity=".01"/><stop offset=".95" stop-color="#010101"/></linearGradient><linearGradient id="paint11_linear" x1="506.84" y1="242.507" x2="527.291" y2="-373.459" gradientUnits="userSpaceOnUse"><stop stop-color="#010101" stop-opacity=".01"/><stop offset=".95" stop-color="#010101"/></linearGradient><linearGradient id="paint12_linear" x1="505.932" y1="242.87" x2="526.383" y2="-373.096" gradientUnits="userSpaceOnUse"><stop stop-color="#010101" stop-opacity=".01"/><stop offset=".95" stop-color="#010101"/></linearGradient><linearGradient id="paint13_linear" x1="405.553" y1="240.002" x2="426.034" y2="-375.963" gradientUnits="userSpaceOnUse"><stop stop-color="#010101" stop-opacity=".01"/><stop offset=".95" stop-color="#010101"/></linearGradient><linearGradient id="paint14_linear" x1="404.645" y1="240.365" x2="425.126" y2="-375.6" gradientUnits="userSpaceOnUse"><stop stop-color="#010101" stop-opacity=".01"/><stop offset=".95" stop-color="#010101"/></linearGradient><linearGradient id="paint15_linear" x1="504.932" y1="244.469" x2="525.413" y2="-371.496" gradientUnits="userSpaceOnUse"><stop stop-color="#010101" stop-opacity=".01"/><stop offset=".95" stop-color="#010101"/></linearGradient><linearGradient id="paint16_linear" x1="404.711" y1="242.008" x2="425.162" y2="-373.958" gradientUnits="userSpaceOnUse"><stop stop-color="#010101" stop-opacity=".01"/><stop offset=".95" stop-color="#010101"/></linearGradient><linearGradient id="paint17_linear" x1="455.861" y1="243.245" x2="476.342" y2="-372.698" gradientUnits="userSpaceOnUse"><stop stop-color="#010101" stop-opacity=".01"/><stop offset=".95" stop-color="#010101"/></linearGradient><linearGradient id="paint18_linear" x1="457.796" y1="240.523" x2="478.277" y2="-375.442" gradientUnits="userSpaceOnUse"><stop stop-color="#010101" stop-opacity=".01"/><stop offset=".95" stop-color="#010101"/></linearGradient><linearGradient id="paint19_linear" x1="90.001" y1="256.038" x2="337.522" y2="486.998" gradientUnits="userSpaceOnUse"><stop stop-color="#fff" stop-opacity=".01"/><stop offset=".07" stop-color="#fff" stop-opacity=".22"/><stop offset=".16" stop-color="#fff" stop-opacity=".45"/><stop offset=".25" stop-color="#fff" stop-opacity=".65"/><stop offset=".33" stop-color="#fff" stop-opacity=".8"/><stop offset=".4" stop-color="#fff" stop-opacity=".91"/><stop offset=".46" stop-color="#fff" stop-opacity=".98"/><stop offset=".51" stop-color="#fff"/></linearGradient></defs></svg>