<svg width="276" height="380" fill="none" xmlns="http://www.w3.org/2000/svg"><path d="M0 236.014L115.83.096l68.986 33.782-115.83 235.917L0 236.014z" fill="#fff"/><path d="M26.845 228.743l14.114-28.835 46.464 22.682-14.114 28.835-46.464-22.682z" fill="#505F98"/><path d="M26.845 228.743l14.114-28.835 46.464 22.682-14.114 28.835-46.464-22.682z" fill="url(#paint0_linear)"/><path d="M40.96 200.133l14.114-28.835 46.464 22.683-14.113 28.834-46.464-22.682z" fill="#505F98"/><path d="M40.96 200.133l14.114-28.835 46.464 22.683-14.113 28.834-46.464-22.682z" fill="url(#paint1_linear)"/><path d="M55.057 171.514l14.114-28.835 46.464 22.682-14.113 28.835-46.465-22.682z" fill="#505F98"/><path d="M55.057 171.514l14.114-28.835 46.464 22.682-14.113 28.835-46.465-22.682z" fill="url(#paint2_linear)"/><path d="M69.194 142.925l14.113-28.835 46.464 22.683-14.113 28.834-46.464-22.682z" fill="#505F98"/><path d="M69.194 142.925l14.113-28.835 46.464 22.683-14.113 28.834-46.464-22.682z" fill="url(#paint3_linear)"/><path d="M83.3 114.287l14.113-28.835 46.464 22.683-14.113 28.835L83.3 114.287z" fill="#505F98"/><path d="M97.415 85.698l14.114-28.835 46.464 22.683-14.114 28.834-46.464-22.682z" fill="#505F98"/><path d="M111.512 57.079l14.113-28.835 46.464 22.682-14.113 28.835-46.464-22.682z" fill="#505F98"/><path d="M95.827 89.286l14.114-28.835 46.464 22.683-14.114 28.835-46.464-22.683z" fill="url(#paint4_linear)"/><path d="M109.952 60.657l14.113-28.835 46.465 22.683-14.114 28.835-46.464-22.683z" fill="url(#paint5_linear)"/><path d="M22.304 210.514L227.433 45.98l48.112 59.826L70.417 270.34l-48.113-59.826z" fill="#fff"/><path d="M51.028 215.143l25.067-20.221 32.583 40.287L83.61 255.43l-32.582-40.287z" fill="#505F98"/><path d="M51.028 215.143l25.067-20.221 32.583 40.287L83.61 255.43l-32.582-40.287z" fill="url(#paint6_linear)"/><path d="M74.646 195.376l25.032-20.128 32.435 40.23-25.032 20.129-32.435-40.231z" fill="#505F98"/><path d="M74.646 195.376l25.032-20.128 32.435 40.23-25.032 20.129-32.435-40.231z" fill="url(#paint7_linear)"/><path d="M99.59 175.449l25.032-20.129 32.435 40.231-25.032 20.128-32.435-40.23z" fill="#505F98"/><path d="M99.59 175.449l25.032-20.129 32.435 40.231-25.032 20.128-32.435-40.23z" fill="url(#paint8_linear)"/><path d="M124.517 155.534l25.032-20.128 32.435 40.23-25.032 20.129-32.435-40.231z" fill="#505F98"/><path d="M124.517 155.534l25.032-20.128 32.435 40.23-25.032 20.129-32.435-40.231z" fill="url(#paint9_linear)"/><path d="M150.637 135.077l25.068-20.22 32.582 40.287-25.067 20.22-32.583-40.287zm25.08-20.399l25.068-20.22 32.582 40.287-25.067 20.22-32.583-40.287z" fill="#505F98"/><path d="M199.325 95.739l25.032-20.129 32.435 40.231-25.032 20.128-32.435-40.23z" fill="#505F98"/><path d="M229.343 138.906l-21.099 16.782-31.938-40.218 21.099-16.782 31.938 40.218z" fill="url(#paint10_linear)"/><path d="M196.368 98.335L221.4 78.207l32.435 40.23-25.033 20.129-32.434-40.23z" fill="url(#paint11_linear)"/><path d="M145.285 219.838v122.85H124.27v-122.85c0-4.54 2.819-8.58 7.019-10.061v-12.264c0-2.113 1.675-3.825 3.743-3.825 2.067 0 3.743 1.712 3.743 3.825v12.472c3.919 1.638 6.488 5.526 6.51 9.853z" fill="#505F98"/><path d="M145.285 219.838v122.85H124.27v-122.85c0-4.54 2.819-8.58 7.019-10.061v-12.264c0-2.113 1.675-3.825 3.743-3.825 2.067 0 3.743 1.712 3.743 3.825v12.472c3.919 1.638 6.488 5.526 6.51 9.853z" fill="url(#paint12_linear)"/><rect x="111.261" y="297.688" width="50.035" height="9" rx="2.245" fill="#505F98"/><path d="M135.967 379.688c-8.573 0-15.7-12.816-15.7-21.366v-56.634h31.022v56.634c0 8.55-6.77 21.366-15.322 21.366z" fill="#505F98"/><rect x="111.261" y="297.688" width="50.035" height="9" rx="2.245" fill="url(#paint13_linear)"/><path d="M135.967 379.688c-8.573 0-15.7-12.634-15.7-21.063v-51.937h31.022v51.937c0 8.429-6.77 21.063-15.322 21.063z" fill="url(#paint14_linear)"/><defs><linearGradient id="paint0_linear" x1="151.033" y1="295.853" x2="215.787" y2="167.287" gradientUnits="userSpaceOnUse"><stop stop-color="#010101" stop-opacity=".01"/><stop offset=".95" stop-color="#010101"/></linearGradient><linearGradient id="paint1_linear" x1="206.194" y1="292.052" x2="299.048" y2="110.462" gradientUnits="userSpaceOnUse"><stop stop-color="#010101" stop-opacity=".01"/><stop offset=".95" stop-color="#010101"/></linearGradient><linearGradient id="paint2_linear" x1="326.176" y1="300.78" x2="463.53" y2="-9.364" gradientUnits="userSpaceOnUse"><stop stop-color="#010101" stop-opacity=".01"/><stop offset=".95" stop-color="#010101"/></linearGradient><linearGradient id="paint3_linear" x1="454.01" y1="317.271" x2="658.94" y2="-130.134" gradientUnits="userSpaceOnUse"><stop stop-color="#010101" stop-opacity=".01"/><stop offset=".36" stop-color="#010101" stop-opacity=".36"/><stop offset=".95" stop-color="#010101"/></linearGradient><linearGradient id="paint4_linear" x1="305.357" y1="212.252" x2="422.517" y2="-29.343" gradientUnits="userSpaceOnUse"><stop stop-color="#fff" stop-opacity=".01"/><stop offset=".07" stop-color="#fff" stop-opacity=".22"/><stop offset=".16" stop-color="#fff" stop-opacity=".45"/><stop offset=".25" stop-color="#fff" stop-opacity=".65"/><stop offset=".33" stop-color="#fff" stop-opacity=".8"/><stop offset=".4" stop-color="#fff" stop-opacity=".91"/><stop offset=".46" stop-color="#fff" stop-opacity=".98"/><stop offset=".51" stop-color="#fff"/></linearGradient><linearGradient id="paint5_linear" x1="227.281" y1="159.132" x2="291.478" y2="23.243" gradientUnits="userSpaceOnUse"><stop stop-color="#fff" stop-opacity=".01"/><stop offset=".07" stop-color="#fff" stop-opacity=".22"/><stop offset=".16" stop-color="#fff" stop-opacity=".45"/><stop offset=".25" stop-color="#fff" stop-opacity=".65"/><stop offset=".33" stop-color="#fff" stop-opacity=".8"/><stop offset=".4" stop-color="#fff" stop-opacity=".91"/><stop offset=".46" stop-color="#fff" stop-opacity=".98"/><stop offset=".51" stop-color="#fff"/></linearGradient><linearGradient id="paint6_linear" x1="135.368" y1="328.739" x2="248.799" y2="239.322" gradientUnits="userSpaceOnUse"><stop stop-color="#010101" stop-opacity=".01"/><stop offset=".95" stop-color="#010101"/></linearGradient><linearGradient id="paint7_linear" x1="185.207" y1="348.676" x2="346.483" y2="223.554" gradientUnits="userSpaceOnUse"><stop stop-color="#010101" stop-opacity=".01"/><stop offset=".95" stop-color="#010101"/></linearGradient><linearGradient id="paint8_linear" x1="290.151" y1="407.439" x2="546.315" y2="184.716" gradientUnits="userSpaceOnUse"><stop stop-color="#010101" stop-opacity=".01"/><stop offset=".95" stop-color="#010101"/></linearGradient><linearGradient id="paint9_linear" x1="398.91" y1="476.553" x2="774.593" y2="158.138" gradientUnits="userSpaceOnUse"><stop stop-color="#010101" stop-opacity=".01"/><stop offset=".36" stop-color="#010101" stop-opacity=".36"/><stop offset=".95" stop-color="#010101"/></linearGradient><linearGradient id="paint10_linear" x1="247.169" y1="239.439" x2="430.108" y2="108.01" gradientUnits="userSpaceOnUse"><stop stop-color="#fff" stop-opacity=".01"/><stop offset=".07" stop-color="#fff" stop-opacity=".22"/><stop offset=".16" stop-color="#fff" stop-opacity=".45"/><stop offset=".25" stop-color="#fff" stop-opacity=".65"/><stop offset=".33" stop-color="#fff" stop-opacity=".8"/><stop offset=".4" stop-color="#fff" stop-opacity=".91"/><stop offset=".46" stop-color="#fff" stop-opacity=".98"/><stop offset=".51" stop-color="#fff"/></linearGradient><linearGradient id="paint11_linear" x1="260.782" y1="237.205" x2="376.64" y2="141.346" gradientUnits="userSpaceOnUse"><stop stop-color="#fff" stop-opacity=".01"/><stop offset=".07" stop-color="#fff" stop-opacity=".22"/><stop offset=".16" stop-color="#fff" stop-opacity=".45"/><stop offset=".25" stop-color="#fff" stop-opacity=".65"/><stop offset=".33" stop-color="#fff" stop-opacity=".8"/><stop offset=".4" stop-color="#fff" stop-opacity=".91"/><stop offset=".46" stop-color="#fff" stop-opacity=".98"/><stop offset=".51" stop-color="#fff"/></linearGradient><linearGradient id="paint12_linear" x1="126.369" y1="403.432" x2="164.554" y2="403.454" gradientUnits="userSpaceOnUse"><stop stop-color="#fff" stop-opacity=".01"/><stop offset=".07" stop-color="#fff" stop-opacity=".22"/><stop offset=".16" stop-color="#fff" stop-opacity=".45"/><stop offset=".25" stop-color="#fff" stop-opacity=".65"/><stop offset=".33" stop-color="#fff" stop-opacity=".8"/><stop offset=".4" stop-color="#fff" stop-opacity=".91"/><stop offset=".46" stop-color="#fff" stop-opacity=".98"/><stop offset=".51" stop-color="#fff"/></linearGradient><linearGradient id="paint13_linear" x1="53.077" y1="305.887" x2="64.728" y2="344.62" gradientUnits="userSpaceOnUse"><stop stop-color="#010101" stop-opacity=".01"/><stop offset=".95" stop-color="#010101"/></linearGradient><linearGradient id="paint14_linear" x1="77.875" y1="454.62" x2="178.777" y2="456.664" gradientUnits="userSpaceOnUse"><stop stop-color="#010101" stop-opacity=".01"/><stop offset=".95" stop-color="#010101"/></linearGradient></defs></svg>